<?xml version="1.0" encoding="UTF-8" standalone="no"?>
<!-- Created with Inkscape (http://www.inkscape.org/) -->

<svg
   xmlns:dc="http://purl.org/dc/elements/1.1/"
   xmlns:cc="http://creativecommons.org/ns#"
   xmlns:rdf="http://www.w3.org/1999/02/22-rdf-syntax-ns#"
   xmlns:svg="http://www.w3.org/2000/svg"
   xmlns="http://www.w3.org/2000/svg"
   xmlns:xlink="http://www.w3.org/1999/xlink"
   xmlns:sodipodi="http://sodipodi.sourceforge.net/DTD/sodipodi-0.dtd"
   xmlns:inkscape="http://www.inkscape.org/namespaces/inkscape"
   width="297mm"
   height="210mm"
   viewBox="0 0 1052.3622 744.09448"
   id="svg4194"
   version="1.1"
   inkscape:version="0.91 r13725"
   sodipodi:docname="gopher-15-colour.svg">
  <defs
     id="defs4196" />
  <sodipodi:namedview
     id="base"
     pagecolor="#ffffff"
     bordercolor="#666666"
     borderopacity="1.0"
     inkscape:pageopacity="0.0"
     inkscape:pageshadow="2"
     inkscape:zoom="0.87327348"
     inkscape:cx="514.02015"
     inkscape:cy="372.04724"
     inkscape:document-units="px"
     inkscape:current-layer="layer4"
     showgrid="false"
     inkscape:window-width="1440"
     inkscape:window-height="855"
     inkscape:window-x="0"
     inkscape:window-y="626"
     inkscape:window-maximized="1" />
  <metadata
     id="metadata4199">
    <rdf:RDF>
      <cc:Work
         rdf:about="">
        <dc:format>image/svg+xml</dc:format>
        <dc:type
           rdf:resource="http://purl.org/dc/dcmitype/StillImage" />
        <dc:title></dc:title>
      </cc:Work>
    </rdf:RDF>
  </metadata>
  <g
     inkscape:groupmode="layer"
     id="layer4"
     inkscape:label="lines 1"
     style="display:inline">
    <rect
       style="fill:#555753;fill-opacity:1"
       id="rect6040"
       width="1055.6298"
       height="748.6012"
       x="-1.0991321"
       y="1.2879642" />
  </g>
  <g
     inkscape:label="lines"
     inkscape:groupmode="layer"
     id="layer1"
     transform="translate(0,-308.26772)"
     style="display:inline"
     sodipodi:insensitive="true">
    <g
       id="g6042">
      <path
         inkscape:connector-curvature="0"
         id="path5474"
         d="m 583.51339,509.28185 c -22.63064,2.28451 -55.65674,-6.54314 -68.98437,18.01897 -4.39132,9.44635 -12.82585,27.75081 -25.90402,19.88282 -4.55108,-7.20759 -8.72304,-20.73331 -19.3094,-11.93349 -20.71468,12.85204 -45.85917,7.88634 -66.35466,-2.62008 -9.14722,5.0872 1.0226,20.96312 -2.82924,30.68638 0.49742,10.0792 -14.47605,25.29094 0.28459,29.44754 12.38468,3.11154 10.92074,20.38567 24.28014,21.32813 17.46426,2.74818 23.85879,33.6322 2.28794,34.54799 -8.03681,-2.26106 -21.1121,-2.16156 -18.73883,9.84933 0.50934,10.77572 -9.62453,13.88903 -17.81808,13.41518 -8.06159,15.22357 1.65208,36.26931 -10.86496,50.72545 -6.40797,6.23726 -3.12734,15.56744 6.57924,12.37723 29.43033,-0.60287 60.84737,-9.99807 87.23675,7.87617 12.5851,14.63072 22.42148,-14.13234 35.30231,-2.70876 9.6241,9.77696 15.48115,24.18365 30.95425,26.22768 36.5321,9.74838 75.48164,11.67442 112.96316,7.98549 18.05013,-6.01144 42.50819,-11.73162 49.92745,-31.42857 -2.38689,-10.81321 -19.57535,-16.51863 -14.22989,-30.05581 2.49903,-8.30079 9.33437,-23.30601 19.61494,-14.05134 14.16209,2.82958 10.30366,-19.98135 11.7634,-28.06919 -0.2762,-30.40828 3.18643,-61.74756 -2.86274,-91.62947 -4.41748,-9.74965 -19.07206,-5.88717 -22.2154,-17.37723 -11.71903,-11.47013 7.629,-29.1448 -6.1886,-38.78348 -26.26031,-19.91621 -61.99982,-11.27365 -92.53349,-13.71652 -4.12016,0.002 -8.24032,0.004 -12.36049,0.006 z"
         style="display:inline;fill:#8fe3e5;fill-opacity:1" />
      <path
         inkscape:connector-curvature="0"
         id="path5476"
         d="m 335.54464,532.60774 c -29.87745,17.26562 -34.13241,55.99331 -36.76897,87.26563 -1.01165,29.23254 3.25171,61.76767 21.94754,85.01116 10.07561,-1.46566 4.63233,-17.90021 7.35492,-24.66518 0.46463,-15.3702 9.01966,-35.56784 27.80133,-33.42634 19.44244,5.31383 11.88735,-17.6465 12.87389,-29.18526 1.61944,-13.50375 -15.2626,-10.53687 -20.9375,-19.56474 -12.90368,-11.99747 -15.92661,-32.8918 -12.28237,-49.19643 1.55154,-4.43213 8.83348,-15.13652 0.0112,-16.23884 z"
         style="display:inline;fill:#8fe3e5;fill-opacity:1" />
      <path
         inkscape:connector-curvature="0"
         id="path5478"
         d="m 312.29687,520.91132 c -23.63914,0.39941 -33.33172,33.22253 -16.43415,48.45424 6.12467,10.69251 16.43445,-1.34082 12.84599,-9.6317 -3.46916,-7.93567 -7.64076,-22.81775 5.54129,-23.59375 5.39241,-0.36768 24.3682,-1.57151 14.62054,-10.18415 -4.91005,-3.18208 -10.66318,-5.26603 -16.57367,-5.04464 z"
         style="display:inline;fill:#8fe3e5;fill-opacity:1" />
      <path
         inkscape:connector-curvature="0"
         id="path5480"
         d="m 302.45313,680.14681 c -20.00002,7.92997 -21.58882,46.63209 1.11607,51.99218 9.11522,-0.0635 27.45078,-5.71848 24.6875,-17.36607 -6.28836,-7.09261 -26.26318,0.42109 -23.0971,-14.57031 1.53887,-5.6227 7.66302,-19.22644 -2.70647,-20.0558 z"
         style="display:inline;fill:#8fe3e5;fill-opacity:1" />
      <path
         inkscape:connector-curvature="0"
         id="path5482"
         d="m 398.14509,592.24502 c -17.72524,1.99098 -14.52214,25.69334 -15.56362,38.36496 -1.22168,14.69805 -0.56344,39.51183 18.42634,41.26116 16.43345,-11.00532 -1.27629,-31.74431 5.29576,-47.02567 2.00928,-9.89838 9.63239,-33.27048 -8.15848,-32.60045 z"
         style="display:inline;fill:#f6d2a2;fill-opacity:1" />
      <path
         inkscape:connector-curvature="0"
         id="path5484"
         d="m 527.19643,487.25618 c -19.46188,7.96575 -36.58105,25.15239 -44.86607,44.50335 -2.42191,11.97554 13.61902,25.15745 22.30468,12.8962 8.08791,-15.88367 20.79661,-28.81769 29.60938,-44.14062 2.75188,-5.54899 -0.14802,-13.37924 -7.04799,-13.25893 z"
         style="display:inline;fill:#f6d2a2;fill-opacity:1" />
      <path
         inkscape:connector-curvature="0"
         id="path5486"
         d="m 709.85826,515.12448 c -14.12252,5.53103 -19.03747,24.84813 -19.34152,38.64398 0.85205,12.92183 19.06358,26.73006 27.7846,11.65178 9.66189,-8.95134 11.75513,-22.14328 19.98884,-31.84151 0.44843,-9.34884 -14.11704,-18.07005 -18.94531,-6.71317 -1.65926,1.64382 1.33066,-13.68083 -7.66183,-11.76898 -0.60793,-0.008 -1.21846,-0.047 -1.82478,0.0279 z"
         style="display:inline;fill:#f6d2a2;fill-opacity:1" />
      <path
         inkscape:connector-curvature="0"
         id="path5488"
         d="m 700.24888,695.88899 c -16.24901,7.14293 -18.09274,33.8135 -0.15067,40.50224 5.74122,5.57861 10.49884,18.75041 20.73661,11.28906 5.51215,-3.80434 -4.40125,-11.20529 4.0346,-7.22656 13.17864,-3.45248 2.78138,-20.43107 -1.98661,-27.12612 -5.51105,-7.26074 -12.90148,-16.63595 -22.63393,-17.43862 z m 14.58706,37.57813 c 3.88817,3.81528 2.11661,3.03468 -0.14509,-0.16183 l 0.14509,0.16183 z"
         style="display:inline;fill:#f6d2a2;fill-opacity:1" />
      <path
         inkscape:connector-curvature="0"
         id="path5490"
         d="m 498.76451,736.82649 c -16.96855,2.90241 -9.0118,24.70001 -2.35491,33.90067 8.14989,13.49991 24.49112,31.89161 41.83035,25.74777 11.22772,-13.01248 -8.99015,-25.47788 -14.57589,-35.94308 -5.53451,-9.70761 -12.15581,-22.9874 -24.89955,-23.70536 z"
         style="display:inline;fill:#f6d2a2;fill-opacity:1" />
      <path
         inkscape:connector-curvature="0"
         id="path5492"
         d="m 309.55119,688.70533 c -5.06592,1.4801 -6.57185,7.9271 -6.82402,12.61948 -0.79487,5.02114 2.07948,10.45156 7.40845,11.22661 3.99134,0.38943 9.47295,3.61836 12.4251,-0.51364 2.19169,-4.50723 -2.68729,-8.67436 -4.41289,-12.50233 -2.52816,-3.31348 -3.89191,-7.65023 -6.91542,-10.48383 -0.53124,-0.26448 -1.0918,-0.36405 -1.68122,-0.34629 z"
         style="display:inline;fill:#000000;fill-opacity:1" />
      <path
         inkscape:connector-curvature="0"
         id="path5494"
         d="m 315.60668,533.41098 c -5.55276,-0.23162 -11.88376,2.62582 -12.60918,8.75111 -1.12122,6.06399 1.12421,13.05545 6.10957,16.78006 4.64182,0.85722 6.02173,-5.10355 8.58613,-7.8596 2.57587,-4.37997 6.17731,-8.02042 9.18,-12.02802 1.30219,-5.85449 -7.73014,-5.37854 -11.26652,-5.64355 z"
         style="display:inline;fill:#000000;fill-opacity:1" />
      <path
         inkscape:connector-curvature="0"
         id="path5496"
         d="m 378.62168,604.51927 c -3.7984,1.23407 -7.62077,2.44621 -11.65915,2.45233 -5.4299,1.64226 -0.8454,11.3332 3.95204,8.44216 3.34285,-2.41336 9.23842,0.27596 11.05539,-4.47468 1.25761,-2.62693 0.25821,-6.82313 -3.34828,-6.41981 z"
         style="display:inline;fill:#8fe3e5;fill-opacity:1" />
      <path
         inkscape:connector-curvature="0"
         id="path5498"
         d="m 413.55921,605.28651 c -5.01387,1.58847 -2.74644,10.18892 2.48193,9.43468 4.19947,1.12994 6.21413,-4.32577 2.6021,-6.47112 -1.3086,-1.4733 -2.82948,-3.43718 -5.08403,-2.96356 z"
         style="display:inline;fill:#8fe3e5;fill-opacity:1" />
      <path
         inkscape:connector-curvature="0"
         id="path5502"
         d="m 355.55312,522.43282 c -6.95602,1.10975 -13.52915,4.36285 -19.54519,7.89377 -2.06887,1.70469 -1.15027,4.88688 1.00668,6.03876 0.94823,4.16362 6.04249,2.43946 7.84489,-0.10853 3.54158,-4.05075 8.6418,-5.81599 13.22705,-8.24867 2.45619,-1.95102 0.56203,-6.1025 -2.53343,-5.57533 z"
         style="display:inline;fill:#8fe3e5;fill-opacity:1" />
      <path
         inkscape:connector-curvature="0"
         id="path5504"
         d="m 323.97032,699.36424 c -3.04659,2.03779 -6.226,6.18503 -3.17708,9.62391 2.6528,2.83934 4.79177,7.07432 8.63811,8.24323 4.27248,0.2492 3.63822,-4.83228 2.12507,-7.34855 -1.77274,-3.35746 -1.83295,-7.38703 -3.68942,-10.63187 -1.50176,-0.7785 -2.44085,-0.73527 -3.89668,0.11328 z"
         style="display:inline;fill:#8fe3e5;fill-opacity:1" />
      <path
         inkscape:connector-curvature="0"
         id="path5506"
         d="m 371.97531,645.69123 c -2.94136,3.7564 2.33599,6.85421 5.31915,8.3984 5.92305,1.32517 5.82656,-8.7646 0.3656,-8.96867 -1.91957,-0.25916 -3.92153,-0.38309 -5.68475,0.57027 z"
         style="display:inline;fill:#8fe3e5;fill-opacity:1" />
      <path
         inkscape:connector-curvature="0"
         id="path5508"
         d="m 368.82655,639.36026 c -4.21491,0.55084 -5.48734,7.67952 -0.84576,8.74081 2.7535,2.03747 7.80443,0.11985 6.32583,-3.72289 -1.14654,-2.07978 -2.72705,-5.08211 -5.48007,-5.01792 z"
         style="display:inline;fill:#8fe3e5;fill-opacity:1" />
      <path
         inkscape:connector-curvature="0"
         id="path5510"
         d="m 387.6161,666.30618 c -4.75001,0.80762 -2.59381,6.85503 -1.28099,9.63767 2.2809,3.76025 6.2337,-0.0938 6.75848,-3.14063 0.99213,-3.16598 -2.55952,-6.35304 -5.47749,-6.49704 z"
         style="display:inline;fill:#8fe3e5;fill-opacity:1" />
      <path
         inkscape:connector-curvature="0"
         id="path5512"
         d="m 330.99187,527.4581 c -1.26213,0.30139 -2.16724,1.4178 -2.37958,2.66232 -1.50812,1.37176 -3.88139,1.16149 -5.26986,2.6793 -1.19029,1.42851 -0.66217,3.78259 0.98671,4.60822 1.63615,0.82251 3.7192,1.13255 5.3031,0.012 1.82676,-1.25423 3.61935,-2.64141 5.03688,-4.35539 1.15579,-1.55285 0.5658,-3.85114 -0.99731,-4.89092 -0.75175,-0.62845 -1.71376,-0.88656 -2.67994,-0.71549 z"
         style="display:inline;fill:#8fe3e5;fill-opacity:1" />
      <path
         inkscape:connector-curvature="0"
         id="path5514"
         d="m 398.80047,530.99685 c -1.84154,-0.12557 -3.59515,1.52602 -3.34349,3.40432 0.23232,1.32711 0.77285,2.61088 1.29303,3.8464 0.82472,1.61347 3.13334,2.05165 4.516,0.90451 1.05067,-0.79709 1.28338,-2.1821 2.00945,-3.2236 0.97798,-1.69203 -0.003,-4.04991 -1.88778,-4.55488 -0.83389,-0.26236 -1.71516,-0.36833 -2.58721,-0.37675 z"
         style="display:inline;fill:#8fe3e5;fill-opacity:1" />
      <path
         inkscape:connector-curvature="0"
         id="path5516"
         d="m 712.53591,570.18816 c -1.45759,0.3315 -3.23771,0.59134 -3.89943,2.14316 -0.72049,1.55164 0.15066,3.4242 1.67221,4.10354 1.52727,0.71118 2.48435,2.50234 4.29039,2.58316 1.8779,0.17307 3.50561,-1.71279 3.13246,-3.54476 -0.39431,-1.49086 -1.18663,-2.89397 -2.13361,-4.10416 -0.7853,-0.85688 -1.88787,-1.37275 -3.06202,-1.18094 z"
         style="display:inline;fill:#8fe3e5;fill-opacity:1" />
      <path
         inkscape:connector-curvature="0"
         id="path5518"
         d="m 714.27419,694.94819 c -1.29955,0.0419 -2.28141,1.06859 -3.56912,1.19668 -1.82312,0.25793 -3.12752,2.33676 -2.36334,4.05473 0.56115,1.42173 2.08793,2.08004 3.25189,2.94999 1.55184,1.17456 3.97929,0.58835 4.839,-1.15236 0.5483,-1.22072 0.81272,-2.56765 0.99401,-3.88871 0.0614,-1.72904 -1.41063,-3.23474 -3.15244,-3.16033 z"
         style="display:inline;fill:#8fe3e5;fill-opacity:1" />
      <path
         inkscape:connector-curvature="0"
         id="path5520"
         d="m 522.55629,754.58073 c -1.87757,0.31101 -3.02784,2.52927 -2.21621,4.24894 0.69607,1.58459 1.55964,3.58103 3.51603,3.81527 2.61581,0.41016 4.61182,-2.89563 3.29805,-5.09757 -0.72927,-1.09998 -1.69582,-2.11726 -2.86127,-2.75614 -0.57447,-0.22656 -1.12545,-0.26243 -1.7366,-0.2105 z"
         style="display:inline;fill:#8fe3e5;fill-opacity:1" />
      <path
         inkscape:connector-curvature="0"
         id="path5522"
         d="m 486.8391,742.10683 c -1.33511,0.52859 -2.68041,1.15274 -3.82505,2.02387 -1.50843,1.27581 -1.22549,3.92548 0.51466,4.86067 1.82503,0.99004 4.36952,1.02124 5.85382,-0.60812 1.31821,-1.4514 1.84917,-4.03071 0.31981,-5.53083 -0.78115,-0.70883 -1.8339,-0.97673 -2.86324,-0.74559 z"
         style="display:inline;fill:#8fe3e5;fill-opacity:1" />
      <path
         inkscape:connector-curvature="0"
         id="path5524"
         d="m 371.9652,523.89695 c -18.61727,-0.45904 -39.59802,13.56131 -39.07551,33.68023 -0.22296,15.41044 2.97873,33.15326 15.40604,43.51003 9.22257,7.03081 24.06444,11.9007 33.40073,2.40206 11.42648,-12.46197 19.01139,-29.10988 20.05072,-46.03727 0.18043,-11.9246 -2.36781,-28.08564 -15.52617,-32.16391 -4.63633,-1.23033 -9.47879,-1.49235 -14.25581,-1.39114 z m 10.3888,34.60399 c 7.72886,3.93048 8.46616,17.45516 1.47389,22.30294 -3.99109,0.52623 -7.43602,-4.65894 -8.24841,-8.11423 -0.35745,-5.10796 1.23763,-12.51335 6.77452,-14.18871 z"
         style="display:inline;fill:#ffffff;fill-opacity:1" />
      <path
         inkscape:connector-curvature="0"
         id="path5526"
         d="m 354.94054,646.37075 c -15.11219,-0.5261 -24.28413,14.69415 -28.12917,27.46938 -3.56316,13.08775 -0.66013,27.35976 4.24499,39.70558 7.00529,11.94425 21.30353,22.8318 35.80055,19.26793 14.52665,-5.25658 21.00934,-22.15763 21.7505,-36.52967 0.42995,-14.16652 -0.19888,-30.24321 -9.63061,-41.65361 -6.39879,-5.98489 -15.44055,-8.39388 -24.03626,-8.25961 z m 14.40342,33.62439 c 7.77362,-1.00582 9.249,7.69007 9.82071,13.42381 1.18349,4.7501 -1.14967,10.82208 -5.91792,12.09529 -8.80863,-4.48374 -10.6244,-18.29467 -4.55363,-25.52805 l 0.28404,-0.007 0.3668,0.0157 z"
         style="display:inline;fill:#ffffff;fill-opacity:1" />
      <path
         inkscape:connector-curvature="0"
         id="path5528"
         d="m 381.13061,560.87617 c -9.19765,0.66301 -9.47856,17.26545 0.18563,16.85244 7.42749,-1.8706 9.88759,-14.88528 1.30168,-16.78087 -0.49058,-0.0846 -0.99098,-0.1032 -1.48731,-0.0716 z"
         style="display:inline;fill:#ffffff;fill-opacity:1" />
      <path
         inkscape:connector-curvature="0"
         id="path5530"
         d="m 370.92297,683.05027 c -7.39953,1.09979 -5.42814,11.94786 -1.2905,15.81469 4.1343,4.47098 10.71079,-0.6834 9.27947,-5.97608 -0.0659,-4.50732 -2.75536,-10.16423 -7.98897,-9.83861 z"
         style="display:inline;fill:#ffffff;fill-opacity:1" />
      <path
         inkscape:connector-curvature="0"
         id="path5532"
         d="m 418.19929,612.26775 c -6.46632,-1.06438 -10.53651,4.35037 -11.84928,9.99293 -2.91494,4.32236 0.12901,9.1799 5.2246,8.8836 9.00087,1.06531 18.55927,5.35851 27.52082,2.63914 6.55171,-5.47437 -0.49517,-15.15577 -6.50614,-17.94165 -4.33965,-2.48073 -9.37985,-3.83633 -14.39,-3.57402 z"
         style="display:inline;fill:#ffffff;fill-opacity:1" />
      <path
         inkscape:connector-curvature="0"
         id="path5534"
         d="m 408.01401,628.48054 c -6.52645,1.50745 -3.74401,10.26761 -3.00146,14.99387 3.30024,8.0591 14.07823,5.53715 20.96985,6.48365 8.15413,1.26863 17.28972,-6.41048 16.50812,-14.6672 -3.10497,-4.69198 -10.02414,-1.87817 -14.69441,-3.73382 -6.61481,-0.84077 -13.15741,-2.42406 -19.7821,-3.0765 z"
         style="display:inline;fill:#ffffff;fill-opacity:1" />
      <g
         id="g5562">
        <g
           id="g5538">
          <path
             inkscape:connector-curvature="0"
             id="path5472"
             d="m 531.88427,487.50472 c 5.62171,2.11148 7.43747,8.23766 4.42239,14.92062 -0.73144,1.62123 -1.53299,3.43061 -1.78123,4.02085 -0.24824,0.59025 -0.68305,1.22992 -0.96625,1.42151 -1.03345,0.69913 -0.0118,1.08046 3.68206,1.3743 2.47195,0.19663 4.59108,0.1203 6.14162,-0.22123 2.42471,-0.53408 4.26848,-0.60037 28.72079,-1.0326 7.78824,-0.13768 16.42044,-0.47338 19.18268,-0.746 2.97843,-0.29397 7.60701,-0.38772 11.37377,-0.23038 3.49334,0.14592 11.70195,0.31015 18.24133,0.36494 6.53939,0.0548 13.89249,0.34016 16.34022,0.63413 2.44774,0.29398 8.18271,0.62981 12.7444,0.74629 8.21507,0.20979 14.94149,0.99988 18.55843,2.17991 1.03018,0.33609 3.39641,1.10241 5.25829,1.70292 3.516,1.13403 7.3955,3.60056 13.21408,8.40131 1.57384,1.29853 3.38205,2.74731 4.01823,3.2195 0.63618,0.4722 1.83247,1.48634 2.65842,2.25366 0.82595,0.76731 1.60286,1.39512 1.72646,1.39512 0.12361,0 0.66871,-1.01415 1.21133,-2.25366 0.54262,-1.23951 1.39301,-2.73658 1.88976,-3.32682 0.49674,-0.59024 1.23364,-1.74927 1.63755,-2.5756 2.14908,-4.39673 5.83434,-6.87088 10.22677,-6.86589 4.22688,0.005 6.4281,1.4569 9.39317,6.19649 2.05571,3.28602 2.38268,3.50531 3.48412,2.33668 1.42387,-1.51074 4.56921,-1.62152 7.29893,-0.25706 2.86613,1.43264 3.83712,2.42319 6.552,6.68402 1.93061,3.02996 2.2855,3.88421 2.2855,5.50138 0,2.74145 -0.25275,3.14665 -6.24642,10.01409 -1.90525,2.183 -3.21676,4.56502 -4.22944,7.6817 -0.91609,2.81941 -2.51924,6.17654 -3.52252,7.37646 -0.31165,0.37274 -0.56664,0.83203 -0.56664,1.02066 0,0.7488 -4.3123,6.59939 -6.57171,8.91597 -2.22534,2.28166 -2.37723,2.55921 -2.11435,3.86341 0.15578,0.77283 0.4308,1.60089 0.61116,1.84013 0.18036,0.23923 0.54345,1.39826 0.80687,2.5756 0.26342,1.17735 0.91411,3.64767 1.44598,5.48961 0.53187,1.84194 0.96704,4.00371 0.96704,4.80393 0,0.80022 0.17408,1.56909 0.38684,1.70861 0.21277,0.13952 0.38819,1.74457 0.38985,3.56679 0.002,1.82222 0.27699,4.40993 0.61188,5.75047 0.41143,1.64697 0.67626,5.47501 0.81666,11.80486 0.11428,5.15212 0.3627,9.94702 0.55204,10.65531 0.37145,1.38952 0.27245,31.0773 -0.11309,33.91213 -0.12844,0.94439 -0.49223,5.58047 -0.80842,10.30242 -0.3162,4.72194 -0.93533,10.61363 -1.37585,13.09265 -0.44052,2.47902 -0.92556,5.85951 -1.07788,7.51219 -0.33251,3.60782 -0.2694,3.24722 -1.5726,8.98489 -0.57654,2.53841 -0.97316,4.74423 -0.88136,4.90183 0.0918,0.15759 0.0247,1.11145 -0.14904,2.11969 -0.35809,2.07771 -0.45723,1.89732 4.17908,7.6033 3.12335,3.84395 9.11891,13.21075 10.35726,16.18104 1.15172,2.7625 2.09788,7.91636 1.78922,9.74603 -0.56783,3.36587 -2.68588,5.69042 -6.0974,6.69184 -0.54344,0.15953 -0.97873,0.7253 -1.13359,1.4734 -0.13827,0.66794 -0.69711,1.65871 -1.24187,2.20171 -0.54476,0.54299 -0.99047,1.20702 -0.99047,1.47562 0,0.47046 -1.13633,1.48627 -3.96707,3.54635 -1.45179,1.05654 -3.94048,1.79829 -6.08931,1.81489 -0.9089,0.007 -1.86449,-0.41527 -2.89031,-1.27731 -0.84286,-0.70829 -1.70748,-1.2878 -1.92137,-1.2878 -0.21389,0 -1.18904,-1.20731 -2.16699,-2.68292 -1.52955,-2.30788 -1.79663,-2.54424 -1.91063,-1.69082 -0.0729,0.54565 -0.3915,1.09754 -0.70802,1.22641 -0.31652,0.12887 -0.5755,0.41523 -0.5755,0.63635 0,0.76893 -8.39295,10.2378 -9.0745,10.2378 -0.24282,0 -0.89479,0.44012 -1.44881,0.97804 -4.37138,4.24431 -18.05703,11.50521 -29.18722,15.48524 -8.30499,2.96977 -20.12589,4.50367 -33.51915,4.34951 -9.53062,-0.1097 -35.32918,-1.27378 -35.88693,-1.61929 -0.17784,-0.11016 -3.87356,-0.33738 -8.21272,-0.50493 -20.47331,-0.79054 -23.89527,-1.25148 -34.18734,-4.60507 -2.89277,-0.94259 -6.35196,-1.98128 -7.68709,-2.30821 -5.00421,-1.22537 -11.61598,-3.60257 -14.76266,-5.30778 -1.58065,-0.85657 -4.39476,-2.17484 -4.64261,-2.17484 -0.088,0 0.27329,0.82098 0.80296,1.82439 1.18873,2.2519 5.90078,7.52453 8.08313,9.04475 0.89008,0.62003 2.9838,2.24379 4.65271,3.60835 2.99619,2.44978 3.0506,2.52961 4.32297,6.3432 1.90795,5.7186 1.60007,11.13913 -0.78763,13.86668 -2.35935,2.69518 -9.06631,4.26306 -13.12785,3.06888 -1.84207,-0.54161 -5.32269,-2.10847 -10.2321,-4.60617 -2.99037,-1.52137 -10.01753,-6.56645 -12.2635,-8.80445 -0.99854,-0.995 -2.43947,-2.40016 -3.20206,-3.12258 -1.49708,-1.4182 -5.5176,-6.8099 -5.88722,-7.89503 -0.12452,-0.36554 -0.78524,-1.5339 -1.46828,-2.59633 -0.68303,-1.06244 -1.25094,-2.02829 -1.26201,-2.14634 -0.074,-0.78924 -2.87987,-7.80012 -3.85657,-9.63632 -0.65472,-1.23088 -1.1904,-2.61833 -1.1904,-3.08324 0,-0.46491 -0.15881,-1.0288 -0.35293,-1.2531 -0.19411,-0.22429 -0.81951,-1.66341 -1.38977,-3.19804 -1.16854,-3.1446 -0.90406,-2.91839 -5.53981,-4.73824 -1.89143,-0.74252 -5.6267,-2.56437 -8.30061,-4.04855 -6.35516,-3.52751 -21.26373,-9.81439 -25.88673,-10.91633 -2.00269,-0.47736 -4.50141,-1.15456 -5.55271,-1.5049 -2.62111,-0.87345 -9.82023,-0.54666 -12.57876,0.57099 -0.62641,0.25381 -1.75614,0.46146 -2.5105,0.46146 -0.75436,0 -4.52031,0.67933 -8.36878,1.50963 -3.84847,0.83029 -9.42576,1.79601 -12.39398,2.14603 -5.17826,0.61065 -15.89034,0.92253 -16.56184,0.4822 -0.17745,-0.11636 -2.1367,-0.25997 -4.35391,-0.31913 -3.07497,-0.082 -4.36135,-0.30224 -5.42268,-0.92824 -0.76528,-0.45137 -2.31281,-1.19627 -3.43897,-1.65533 -1.12615,-0.45906 -2.62935,-1.1562 -3.34044,-1.54921 -1.05013,-0.58039 -1.46793,-0.61856 -2.22521,-0.20326 -1.40161,0.76868 -4.30337,1.81948 -6.79879,2.46202 -2.41945,0.62297 -5.77309,0.45513 -9.17285,-0.45909 -2.58108,-0.69408 -8.0199,-3.41332 -9.59685,-4.79815 -0.64365,-0.56523 -2.0457,-1.49838 -3.1157,-2.07366 -1.06996,-0.57528 -2.45498,-1.7276 -3.07783,-2.56072 -1.6151,-2.16035 -5.62068,-5.36038 -6.70978,-5.36038 -1.07122,0 -5.37377,-3.35401 -7.89178,-6.15198 l -1.73623,-1.92924 -2.5119,1.60497 c -5.01461,3.20403 -8.42101,3.37606 -12.40672,0.62655 -1.3255,-0.91437 -2.41784,-1.88029 -2.42751,-2.14651 -0.01,-0.26621 -0.28033,-0.71546 -0.60161,-0.99834 -0.32124,-0.28287 -0.98039,-1.77798 -1.46484,-3.32247 -1.04982,-3.34722 -1.13834,-7.56004 -0.22726,-10.81518 0.59215,-2.11572 4.07271,-7.77506 4.78174,-7.77506 0.1796,0 0.32654,-0.26625 0.32654,-0.59166 0,-0.65388 -3.4384,-7.46936 -4.19076,-8.30676 -0.84295,-0.93822 -7.15377,4.11208 -10.41059,8.33114 -1.9734,2.55646 -5.59936,10.99043 -5.97372,13.89491 -0.487,3.77824 0.0609,8.56284 1.52439,13.31191 0.68694,2.2292 1.24899,4.22099 1.24899,4.4262 0,0.88597 3.1284,5.78148 4.70114,7.35661 0.94454,0.94599 2.77658,2.29818 4.07113,3.00487 2.17172,1.18551 2.66673,1.2822 6.39963,1.25007 l 4.04583,-0.0348 4.65272,-2.44372 c 8.38897,-4.40609 9.47968,-5.0806 12.0159,-7.43088 2.25677,-2.09135 2.59128,-2.26919 3.33782,-1.77455 0.78574,0.52065 1.17572,2.05255 0.5262,2.06708 -0.16689,0.004 -1.39582,1.06595 -2.73094,2.36049 -1.33513,1.29453 -2.79163,2.35515 -3.23668,2.35692 -0.44504,0.002 -1.99257,0.67524 -3.43896,1.4966 -1.44639,0.82135 -4.51827,2.49835 -6.82642,3.72666 l -4.19667,2.2333 -4.50188,0.0267 -4.50193,0.0267 -3.24031,-2.01917 c -3.44783,-2.14847 -5.39946,-4.01266 -6.68875,-6.389 -1.71665,-3.164 -3.21134,-6.7337 -3.84876,-9.1918 -0.36736,-1.41658 -0.82572,-3.05853 -1.01858,-3.64877 -0.67707,-2.07216 -1.05714,-9.05394 -0.60757,-11.16096 0.12591,-0.59024 0.34722,-1.73635 0.49173,-2.5469 0.25311,-1.41955 4.0666,-9.74548 5.55959,-12.13825 1.52476,-2.4436 4.55635,-5.59569 7.10567,-7.3881 1.45836,-1.02535 3.06161,-2.33462 3.56273,-2.90949 l 0.91116,-1.04521 -1.04719,-3.62014 c -1.67554,-5.7922 -1.70277,-5.94879 -1.96599,-11.30282 -0.13808,-2.80889 -0.32856,-5.24013 -0.42328,-5.40276 -0.0948,-0.16263 -0.47194,-2.98346 -0.83825,-6.26851 -0.50383,-4.5182 -0.67513,-10.10231 -0.70341,-22.92889 -0.0364,-16.51997 -0.0101,-17.11615 1.02396,-23.18045 0.58377,-3.4234 1.17649,-7.47998 1.31712,-9.01461 0.27431,-2.99234 0.94568,-5.83895 2.43645,-10.33026 0.81127,-2.44425 1.18587,-4.85045 1.04726,-6.72736 -0.0214,-0.29196 -0.69362,-0.82094 -1.49344,-1.17551 -2.22424,-0.98606 -7.01022,-4.76358 -9.26724,-7.31452 -2.74623,-3.10392 -4.57661,-6.44534 -5.57605,-10.17921 -1.25664,-4.69495 -1.13332,-14.88891 0.25137,-20.77708 0.54805,-2.33058 1.20218,-4.79696 1.45363,-5.48086 0.61367,-1.66907 4.5904,-5.97832 6.43393,-6.9719 0.81564,-0.4396 2.12018,-1.20274 2.89901,-1.69587 2.17613,-1.37787 8.87641,-3.93633 11.02139,-4.20844 1.89418,-0.2403 7.00731,0.60576 9.41009,1.55708 1.5057,0.59614 4.44606,1.99044 9.77402,4.6348 2.67386,1.32708 4.24789,1.89332 4.50492,1.62061 0.53478,-0.56742 2.3334,-0.24044 2.2119,0.40212 -0.0534,0.28246 0.27168,0.72301 0.72247,0.97897 0.64652,0.36711 1.36519,0.23383 3.40279,-0.63108 1.42078,-0.60307 2.77832,-1.09649 3.01678,-1.09649 0.2385,0 0.92225,-0.58187 1.5195,-1.29306 0.90525,-1.07796 1.2962,-1.2512 2.35023,-1.0414 0.7719,0.15365 2.82488,-0.17868 5.27116,-0.85327 4.87859,-1.34535 12.25905,-1.55591 15.2197,-0.43421 1.38859,0.5261 2.64436,0.60908 5.82341,0.38479 8.89634,-0.62766 18.40851,2.47135 22.34337,7.27933 0.65834,0.80438 1.30315,1.10899 2.34763,1.10899 3.36156,0 15.71018,3.75082 20.7848,6.31325 4.02853,2.03421 10.58011,4.10701 14.66131,4.63857 3.54696,0.46197 11.15097,0.54092 14.4175,0.14968 2.63481,-0.31557 6.46175,-1.36081 11.78018,-3.21745 2.74764,-0.9592 16.97552,-8.5319 19.9054,-10.59453 0.58058,-0.40873 1.30883,-0.6436 1.61834,-0.52194 0.36561,0.14371 0.97126,-0.56715 1.72896,-2.02928 1.20582,-2.3269 2.96705,-4.9323 5.63853,-8.3411 0.84984,-1.0844 1.83908,-2.47567 2.19831,-3.09172 0.64361,-1.10375 5.76582,-6.47851 6.17875,-6.48341 0.11672,-10e-4 1.39116,-1.47395 2.83209,-3.27236 1.44093,-1.79842 3.43365,-3.86519 4.42826,-4.59283 0.99462,-0.72765 3.18788,-2.61274 4.87392,-4.1891 1.68604,-1.57636 3.8305,-3.28018 4.76547,-3.78627 0.93497,-0.50609 3.42824,-1.97882 5.54061,-3.27274 l 3.84066,-2.35259 3.54362,0.0536 c 2.11356,0.032 4.29318,0.33514 5.40097,0.75122 z m -9.74673,2.71819 c -1.89177,1.26143 -5.09049,3.16174 -7.08114,4.20682 -2.32759,1.22195 -9.2495,7.35253 -15.57556,13.79493 -3.00404,3.05927 -5.59628,5.69747 -5.76055,5.86265 -0.16427,0.16518 -1.29189,1.74911 -2.50583,3.51984 -1.21394,1.77073 -2.35617,3.41267 -2.5383,3.64877 -2.36559,3.06658 -4.61032,7.13121 -4.85989,8.79998 -0.57674,3.85661 0.0688,7.65144 2.03983,11.99167 2.26027,4.97705 4.23534,7.08116 7.26653,7.74127 2.23818,0.48742 2.45013,0.45488 4.85501,-0.74533 1.6347,-0.81583 3.39951,-2.20929 5.04331,-3.9821 1.39075,-1.49991 2.52865,-2.85538 2.52865,-3.01217 0,-0.15678 0.54385,-1.01116 1.20855,-1.89861 0.6647,-0.88744 1.51229,-2.70083 1.88352,-4.02975 0.37124,-1.32891 1.10183,-3.37169 1.62354,-4.53951 0.52171,-1.16781 0.94856,-2.41073 0.94856,-2.76202 0,-3.1916 6.82058,-11.07096 14.69158,-16.9722 3.53728,-2.65207 5.4567,-5.37002 7.61332,-10.7807 1.0261,-2.57435 1.36326,-4.04233 1.36326,-5.93558 0,-2.34935 -0.0935,-2.59819 -1.41604,-3.77085 -1.8115,-1.60614 -3.13125,-1.99838 -6.87793,-2.0442 -2.46681,-0.0302 -3.29924,0.13949 -4.45042,0.90709 z m 59.67612,20.02892 c -5.11799,0.23808 -15.04041,0.54751 -22.04982,0.68763 -8.00573,0.16003 -14.31943,0.49742 -16.98038,0.90739 -2.3298,0.35895 -4.90549,0.53263 -5.72375,0.38595 -3.35326,-0.60109 -7.61963,0.93534 -12.07007,4.34674 -4.50431,3.4527 -10.5392,9.83125 -10.5392,11.13938 0,0.51829 -0.47634,2.07712 -1.05855,3.46406 -0.5822,1.38693 -1.41038,3.85723 -1.8404,5.48954 -0.75021,2.84771 -1.15058,3.56195 -4.08262,7.28313 -0.72182,0.91609 -1.52665,2.07511 -1.78852,2.5756 -0.26187,0.50049 -0.98222,1.29633 -1.60078,1.76852 -0.61855,0.4722 -1.44147,1.18631 -1.82871,1.58693 -2.6591,2.75095 -8.57177,3.41127 -12.54493,1.40101 -1.37141,-0.69388 -4.79011,-5.09984 -4.79011,-6.17341 0,-0.40783 -1.33423,-3.14831 -2.00199,-4.11208 -0.83967,-1.21186 -1.75735,-4.57684 -1.85059,-6.78581 -0.0579,-1.37122 -0.18288,-2.57551 -0.27776,-2.67618 -0.0949,-0.10068 -2.25393,0.96221 -4.79787,2.36196 -10.33068,5.68425 -12.8797,6.88354 -19.09992,8.98636 -6.28571,2.12495 -10.47818,2.72851 -17.26497,2.4855 -8.55574,-0.30634 -15.62136,-1.93386 -21.66554,-4.99049 -1.78017,-0.90026 -5.42142,-2.35175 -8.09167,-3.22554 -2.67026,-0.87378 -5.98545,-1.95995 -7.36711,-2.4137 -2.1809,-0.71624 -4.16398,-1.05809 -4.16333,-0.71769 3.3e-4,0.17563 1.6421,4.72561 2.20721,6.11706 2.69895,6.64546 2.82463,22.63269 0.23455,29.83409 -0.46704,1.29853 -1.02172,2.74731 -1.23263,3.21951 -0.6341,1.41965 -1.32425,3.38623 -1.4724,4.19561 -0.0767,0.4188 -0.59502,1.91005 -1.15191,3.31388 -0.55689,1.40383 -1.01253,2.74834 -1.01253,2.98779 0,0.23945 -0.56059,1.64575 -1.24576,3.12512 -2.24381,4.84464 -2.23225,4.73706 -0.47747,4.44601 3.96143,-0.65704 9.21327,0.0806 12.647,1.77631 2.37051,1.17065 5.23039,4.0744 6.2432,6.33897 0.74393,1.66336 0.83644,4.49195 0.28758,8.79356 -0.22537,1.7663 -0.32673,3.29956 -0.22525,3.40722 0.10148,0.10767 2.68411,0.22972 5.73918,0.27122 9.08507,0.12339 12.65755,1.75031 19.74731,8.99299 1.0138,1.03567 2.12603,2.82435 2.80273,4.50731 0.97722,2.43037 1.1395,3.45781 1.25826,7.96621 0.11532,4.37787 0.0101,5.53619 -0.68247,7.51218 -0.45035,1.28492 -1.17442,2.65693 -1.60903,3.04892 -0.43462,0.39199 -0.79022,0.90501 -0.79022,1.14004 0,0.54046 -3.52302,3.03599 -4.74566,3.36157 -0.50518,0.13453 -0.91851,0.39339 -0.91851,0.57525 0,0.4248 -1.82583,1.18552 -3.64126,1.51711 -1.35338,0.2472 -2.93676,0.11543 -15.37419,-1.27941 -3.00403,-0.33689 -5.608,-0.45884 -5.78659,-0.27099 -0.17859,0.18785 0.15253,1.48075 0.73582,2.87311 0.91407,2.18197 1.03305,2.94653 0.86151,5.53644 -0.27424,4.14062 -1.25122,7.72581 -2.86085,10.49834 -1.0825,1.86458 -1.85682,2.61718 -3.79685,3.69031 -5.37396,2.97263 -8.32407,2.86268 -13.07331,-0.48724 -1.53737,-1.08439 -3.07044,-2.26363 -3.40681,-2.62053 -0.54573,-0.57902 -0.58265,-0.44786 -0.34287,1.21802 0.1478,1.02681 0.40654,2.0601 0.57498,2.29619 0.28611,0.40102 0.67415,3.57711 1.65203,13.52193 0.41382,4.20837 0.50474,9.7045 0.17005,10.27907 -0.10463,0.17963 -0.31248,2.43153 -0.46189,5.00423 -0.1494,2.5727 -0.42827,5.12484 -0.6197,5.67143 -0.19143,0.54659 -0.34805,1.54934 -0.34805,2.22832 0,0.67899 -0.18206,1.35391 -0.40459,1.49983 -0.22252,0.14591 -0.40458,0.5486 -0.40458,0.89486 0,1.11026 -3.59846,8.45658 -5.55433,11.33926 -1.04123,1.53463 -3.02741,3.93841 -4.41372,5.34173 l -2.52058,2.55149 3.51337,1.70656 c 3.28012,1.59326 3.86257,1.73103 8.77297,2.07508 11.60886,0.81337 22.06443,-0.0113 31.15296,-2.45698 1.1126,-0.2994 3.20633,-0.75867 4.65271,-1.02058 1.44639,-0.26192 4.35939,-0.79171 6.47335,-1.17733 6.56465,-1.19749 10.18181,-1.23395 14.55228,-0.14668 5.34836,1.33054 10.43238,2.90748 12.35254,3.83146 0.89009,0.42831 3.43897,1.48097 5.66418,2.33923 2.22521,0.85827 4.95615,2.06437 6.06876,2.68021 5.56774,3.08184 13.1308,7.02699 13.47112,7.02699 0.21129,0 1.23381,0.39877 2.27228,0.88616 2.32582,1.09159 3.55021,0.96692 3.74141,-0.38097 0.15998,-1.1278 1.90648,-3.76185 3.27303,-4.93634 0.50067,-0.43031 0.91031,-1.01891 0.91031,-1.308 0,-0.28909 0.68274,-1.21812 1.51719,-2.06449 2.75642,-2.79581 8.09393,-3.20724 12.44096,-0.959 2.31658,1.19811 6.87926,4.55603 8.72655,6.42232 1.89234,1.9118 7.6591,11.42046 7.6591,12.62889 0,0.25941 0.49054,1.47938 1.09009,2.71104 0.74324,1.52683 1.13888,2.00035 1.24342,1.48816 0.18168,-0.89018 1.57842,-0.99329 2.48964,-0.18378 0.89691,0.79679 11.71712,5.17805 15.60833,6.32004 5.47662,1.60727 8.46501,2.58476 9.1988,3.00888 0.38639,0.22334 1.08109,0.40607 1.54378,0.40607 0.46269,0 1.16368,0.18308 1.55776,0.40685 1.25273,0.71134 8.92025,2.20042 13.56223,2.63386 2.46467,0.23014 8.85073,0.59605 14.19124,0.81315 5.34051,0.2171 11.34858,0.59487 13.35127,0.83949 2.00269,0.24462 7.58221,0.5205 12.39894,0.61306 4.81673,0.0926 8.96831,0.30641 9.22573,0.47521 0.73939,0.48485 23.95403,0.33001 28.28132,-0.18864 5.90895,-0.70821 13.52675,-2.51647 18.26639,-4.33594 7.25215,-2.78397 14.62499,-6.15861 18.04374,-8.25886 1.80204,-1.10704 3.40584,-2.0128 3.564,-2.0128 0.15816,0 1.72257,-1.15902 3.47647,-2.57561 1.75389,-1.41658 3.34503,-2.5756 3.53586,-2.5756 0.60106,0 7.38685,-7.56001 7.38758,-8.23046 1.8e-4,-0.15896 0.44022,-0.8437 0.97787,-1.52165 0.53765,-0.67794 1.09457,-1.90008 1.2376,-2.71585 0.23211,-1.32383 0.0944,-1.65017 -1.28099,-3.03657 -0.84757,-0.85433 -3.27063,-2.77784 -5.38458,-4.27447 -4.85156,-3.43478 -6.9983,-5.57243 -8.34944,-8.31408 -1.45562,-2.95365 -2.57433,-6.52253 -2.57433,-8.21255 0,-4.17097 4.10211,-14.23377 7.57086,-18.57189 1.06527,-1.33227 2.30099,-2.8752 2.74603,-3.42873 1.10623,-1.37587 3.68264,-2.52187 5.82519,-2.59106 2.20825,-0.0713 6.48007,2.01989 9.90112,4.84695 1.30627,1.07946 2.53172,1.96266 2.72323,1.96266 0.19151,0 0.43382,-0.43464 0.53848,-0.96585 0.10466,-0.53122 0.66447,-3.18732 1.24404,-5.90243 0.57956,-2.71512 1.32007,-7.06145 1.64558,-9.65852 0.32551,-2.59707 0.87074,-5.97755 1.21163,-7.51218 0.34088,-1.53463 0.7087,-4.52877 0.81737,-6.65365 0.10866,-2.12487 0.56639,-7.80856 1.01717,-12.63042 0.45078,-4.82186 0.7098,-9.55454 0.5756,-10.51706 -0.1342,-0.96251 -0.21158,-3.68173 -0.17196,-6.0427 0.20112,-11.98512 0.16251,-18.66647 -0.11906,-20.60484 -0.17149,-1.18049 -0.40713,-6.16931 -0.52365,-11.08627 -0.11653,-4.91697 -0.368,-9.2633 -0.55884,-9.65852 -0.37194,-0.77031 -0.74905,-3.83882 -1.11346,-9.06032 -0.21518,-3.08312 -0.42908,-4.05089 -2.22797,-10.08035 -0.41666,-1.39655 -0.75757,-2.90131 -0.75757,-3.34392 0,-0.44261 -0.37269,-1.57986 -0.82821,-2.52722 -0.58674,-1.22028 -1.02909,-1.66427 -1.51719,-1.52282 -4.71805,1.36729 -8.15765,1.37751 -11.22361,0.0333 -2.06796,-0.90663 -2.82667,-1.64141 -4.42595,-4.28631 -0.72054,-1.19164 -2.45249,-3.43776 -3.84876,-4.99137 -4.57294,-5.08823 -6.19575,-11.35677 -4.66735,-18.02885 0.3911,-1.7073 1.10963,-3.78941 1.59672,-4.62692 0.48709,-0.83751 1.47563,-3.49549 2.19676,-5.90663 1.53173,-5.12146 1.39205,-5.82365 -1.61869,-8.13751 -0.96766,-0.74368 -2.12539,-1.70766 -2.57274,-2.14219 -1.65239,-1.60503 -4.53549,-3.9316 -7.78822,-6.28483 -6.6443,-4.80692 -16.14913,-7.03639 -30.44076,-7.14025 -3.89412,-0.0283 -9.17394,-0.34253 -11.73294,-0.69828 -2.88433,-0.40098 -9.88095,-0.74267 -18.40856,-0.899 -7.56572,-0.13869 -13.84689,-0.34419 -13.95815,-0.45668 -0.23456,-0.23712 -10.73052,0.0594 -24.07274,0.68003 z m 126.01592,5.86822 c -1.80565,0.32792 -3.5736,1.96204 -5.86388,5.42001 -1.92613,2.90814 -4.75062,8.74008 -4.74807,9.80365 8.1e-4,0.35414 -0.4037,1.12682 -0.89901,1.71707 -1.0101,1.20371 -1.24979,1.79321 -2.08209,5.12087 -0.32061,1.28184 -1.22949,3.71866 -2.01973,5.41516 -1.15803,2.48606 -1.47825,3.74126 -1.6504,6.46935 -0.20023,3.17294 -0.12997,3.57292 1.12246,6.38969 1.88713,4.24426 6.06877,9.65852 7.45963,9.65852 0.70353,0 1.11264,1.27809 0.61341,1.91632 -0.47679,0.60955 0.74342,1.91368 2.55899,2.73498 1.68849,0.76382 5.50731,1.09215 7.13899,0.61379 1.73948,-0.50997 5.12288,-3.04675 7.88101,-5.90899 3.18804,-3.30837 7.29876,-10.21241 9.28897,-15.60102 1.60569,-4.34749 3.96241,-8.65259 4.73665,-8.65259 0.17958,0 1.51419,-1.2726 2.96579,-2.82801 2.29756,-2.46184 2.63928,-3.03452 2.63928,-4.42302 0,-3.51729 -3.59924,-8.75942 -7.16243,-10.43175 -2.22219,-1.04295 -4.00902,-0.78932 -6.36546,0.90355 -0.9042,0.64958 -1.92357,1.28821 -2.26526,1.41917 -0.76442,0.29297 -3.21274,5.5211 -3.51694,7.51007 -0.18021,1.17824 -0.385,1.43043 -1.07655,1.32569 -1.47632,-0.2236 -1.31181,-2.42921 0.48455,-6.49641 0.87474,-1.98052 1.79485,-3.73499 2.0447,-3.89883 0.60771,-0.3985 -0.58109,-2.84656 -2.73386,-5.62976 -1.73057,-2.23735 -3.98246,-3.3342 -6.11128,-2.9767 -0.55631,0.0934 -1.65407,0.28656 -2.43947,0.42919 z m -401.94213,6.28657 c -1.11261,0.49882 -2.66014,1.19553 -3.43897,1.54823 -0.77882,0.35271 -1.8712,0.9723 -2.4275,1.37687 -0.5563,0.40457 -1.46662,0.85769 -2.02292,1.00694 -0.95518,0.25626 -4.1963,3.20964 -5.8466,5.32751 -0.65377,0.83899 -1.21622,2.91518 -2.58723,9.55069 -0.17078,0.82634 -0.28139,4.39999 -0.24587,7.94145 0.058,5.78547 0.17405,6.76502 1.14335,9.65103 1.37158,4.08369 4.85655,8.85803 7.92026,10.85054 0.79019,0.51391 2.22444,1.56835 3.18719,2.34321 2.86826,2.30847 3.44657,1.91652 4.57147,-3.09848 0.2648,-1.18049 1.08991,-3.62641 1.83362,-5.43538 1.57343,-3.82726 1.57059,-3.8058 0.6405,-4.89341 -1.70698,-1.99605 -3.30853,-4.43439 -4.35284,-6.62727 -0.91072,-1.9123 -1.16164,-3.1103 -1.3204,-6.30397 -0.18445,-3.7114 -0.13097,-4.06065 0.91047,-5.94614 3.24335,-5.872 5.82209,-7.45407 10.86373,-6.66487 1.59758,0.25008 4.90736,0.76596 7.35509,1.1464 2.44773,0.38044 4.65607,0.86813 4.90744,1.08373 0.30186,0.25893 1.37332,-0.37642 3.15588,-1.8713 2.32636,-1.95096 2.60167,-2.32257 1.9948,-2.69259 -0.38719,-0.2361 -1.1701,-0.9436 -1.73979,-1.57223 -1.45468,-1.60517 -10.718,-6.22089 -14.48136,-7.21576 -3.75498,-0.99267 -7.06739,-0.8291 -10.02032,0.4948 z m 46.64407,3.20872 c -2.94161,0.71993 -4.78243,1.37918 -4.85501,1.73871 -0.0643,0.3185 -1.84652,1.22893 -3.96047,2.02318 -3.79556,1.42605 -9.11944,4.1781 -11.51316,5.95145 -4.55493,3.37441 -14.78479,14.40051 -14.78479,15.93554 0,0.3032 -0.35086,0.88815 -0.77968,1.29989 -1.81294,1.7408 -7.43512,13.27123 -8.08969,16.59108 -0.20557,1.04267 -0.8169,3.53771 -1.35847,5.54453 -0.54154,2.00683 -0.92076,4.08394 -0.84267,4.6158 0.0781,0.53187 -0.42089,2.75333 -1.10888,4.93658 -0.688,2.18325 -1.30349,4.35589 -1.36774,4.82808 -0.0643,0.4722 -0.30477,1.7278 -0.53446,2.79024 -0.22968,1.06244 -0.52652,3.18731 -0.65959,4.72194 -0.27491,3.17012 -0.40001,4.0176 -1.29879,8.79999 -0.74703,3.97474 -1.26303,11.21039 -1.0868,15.23899 0.0672,1.53463 0.21249,7.71608 0.32298,13.73656 0.19461,10.60297 0.56084,15.92153 1.40403,20.3902 0.22276,1.18049 0.51649,4.27122 0.65271,6.86828 0.16439,3.13308 0.58002,5.87748 1.23524,8.15609 0.54311,1.88877 1.28411,4.49657 1.64666,5.79511 0.80192,2.87212 4.79059,10.55977 5.66316,10.91504 0.41243,0.16792 0.55133,0.57403 0.40264,1.1773 -0.32533,1.31993 0.40689,2.91042 4.01768,8.72713 1.75873,2.83316 3.27155,5.34438 3.36181,5.58048 0.42615,1.11486 4.21427,6.03461 7.92758,10.2958 1.31829,1.5128 4.24813,3.92115 4.24813,3.49199 0,-0.14591 -0.82248,-2.03183 -1.82775,-4.19093 -1.76479,-3.7904 -2.59634,-6.79251 -4.02569,-14.53344 -1.05285,-5.70203 -0.97108,-15.07773 0.16657,-19.1024 0.20023,-0.70829 0.56423,-2.58306 0.80892,-4.16616 0.48336,-3.12703 2.56405,-9.20079 4.67282,-13.64034 2.5083,-5.2807 6.88428,-9.6087 12.94952,-12.80763 2.96083,-1.56161 9.04763,-2.61625 16.36489,-2.83552 7.47478,-0.22399 9.97729,0.75242 16.83336,6.56791 2.63617,2.23608 2.71261,2.26973 2.43765,1.07317 -0.15611,-0.6794 -0.37736,-1.81479 -0.49165,-2.52309 -0.37644,-2.33273 -0.42616,-2.39061 -1.6347,-1.90309 -1.57983,0.63729 -2.75311,0.1948 -4.80533,-1.81228 -2.19378,-2.14553 -3.0131,-3.51833 -4.58383,-7.68035 -3.16355,-8.3826 -2.19445,-21.41445 1.87125,-25.16326 1.78277,-1.64384 4.20431,-2.18834 6.8622,-1.54302 1.61981,0.39328 1.83559,0.34879 2.32106,-0.47851 0.57978,-0.98801 1.20292,-4.56087 0.79546,-4.56087 -0.1372,0 -1.09519,0.44727 -2.12885,0.99392 -3.70657,1.96022 -8.65453,2.72327 -12.93277,1.99445 -2.48933,-0.42408 -6.2482,-2.02651 -13.3533,-5.6926 -5.00324,-2.58157 -11.0998,-8.32259 -12.9568,-12.20116 -0.42699,-0.89177 -1.17673,-3.14028 -1.66611,-4.99669 -0.48943,-1.85641 -1.22443,-4.20349 -1.63339,-5.21574 -0.7064,-1.74858 -1.74125,-8.92036 -2.22897,-15.44795 -0.12348,-1.65268 -0.42445,-3.99759 -0.66882,-5.21091 -0.31776,-1.57779 -0.32326,-3.42822 -0.0194,-6.49756 0.36372,-3.67292 0.66825,-4.80875 2.11266,-7.87993 0.92819,-1.97363 1.80832,-3.68582 1.95584,-3.80486 0.14755,-0.11905 0.51394,-0.72323 0.8143,-1.34262 1.05366,-2.17308 4.99463,-6.52473 8.31614,-9.18281 3.93199,-3.1466 4.64632,-3.58132 7.09891,-4.32024 1.01158,-0.30479 3.38681,-1.1328 5.27824,-1.84003 l 3.43897,-1.28587 -2.02292,-0.0396 c -1.11261,-0.0218 -4.15508,0.48224 -6.761,1.12002 z m 8.37934,2.07986 c -7.97314,2.58165 -13.77419,5.69891 -16.73813,8.99447 -0.85921,0.95532 -2.14093,2.38828 -2.84823,3.18435 -0.70733,0.79607 -1.75884,2.43802 -2.33671,3.64878 -0.57791,1.21075 -1.48005,2.79911 -2.0048,3.52969 -0.5247,0.73058 -0.95404,1.6095 -0.95404,1.95316 0,0.34367 -0.18692,0.82316 -0.41535,1.06553 -0.22843,0.24237 -0.53009,1.46875 -0.67036,2.72528 -0.20508,1.83735 -0.12501,2.38547 0.40904,2.7998 0.59207,0.45933 0.61205,0.89386 0.18437,4.00723 -0.40378,2.93921 -0.3672,4.48357 0.23106,9.75548 0.3909,3.4449 0.8618,6.68365 1.04649,7.19722 0.18465,0.51357 0.65316,2.09279 1.04116,3.50937 1.27007,4.63719 2.78843,7.94226 6.11338,13.3073 1.78778,2.88473 2.64388,3.7981 5.35111,5.70915 1.77256,1.25127 4.46847,2.78371 5.99088,3.40544 1.5224,0.62172 3.72528,1.68546 4.89526,2.36386 1.81909,1.0548 2.72738,1.26909 6.27103,1.47954 6.93089,0.41161 10.02599,-0.78826 15.01369,-5.82029 4.3364,-4.37495 10.55798,-14.33463 12.36928,-19.80109 0.43027,-1.29854 1.62622,-4.87219 2.65768,-7.94145 2.79664,-8.32184 3.43609,-11.88199 3.24059,-18.04213 -0.30614,-9.6464 -1.79609,-14.88589 -5.99564,-21.08386 -4.16623,-6.14879 -8.11218,-7.35318 -23.54634,-7.18687 -4.92234,0.053 -6.14105,0.21545 -9.30542,1.24004 z m 23.70747,28.40002 c 0.65799,0.18704 3.69939,3.76604 4.88057,5.74327 1.00786,1.6871 2.07958,7.45124 1.81573,9.76575 -0.28233,2.47664 -1.25475,5.42348 -2.30716,6.99162 -0.43296,0.64513 -0.7872,1.34672 -0.7872,1.55908 0,0.21236 -0.6152,1.01876 -1.36711,1.79201 -1.58989,1.63499 -3.83254,2.1383 -6.05704,1.35936 -1.76307,-0.61736 -4.86888,-3.76747 -6.87301,-6.97102 -1.35047,-2.1587 -1.48086,-2.63038 -1.47308,-5.32878 0.0218,-7.56167 5.09844,-15.29706 9.93932,-15.14476 0.87053,0.0274 1.87357,0.13245 2.22898,0.23347 z m -3.27599,2.7216 c 0,0.2361 0.0803,0.42927 0.17842,0.42927 0.0981,0 0.29093,-0.19317 0.42846,-0.42927 0.13752,-0.23609 0.0572,-0.42926 -0.17842,-0.42926 -0.23565,0 -0.42846,0.19317 -0.42846,0.42926 z m -2.93511,5.47317 c -1.62147,1.76242 -2.62394,5.20404 -2.13249,7.3211 0.28524,1.22875 2.50911,3.94879 3.2252,3.94477 2.38838,-0.0134 6.00987,-2.73001 6.52124,-4.89181 0.39508,-1.67013 -0.15779,-4.7679 -1.0707,-5.99928 -0.68201,-0.91994 -2.58653,-1.71587 -4.63863,-1.93857 -0.233,-0.0253 -1.09007,0.67842 -1.90462,1.56379 z m -68.52011,-28.19408 c -1.37457,0.90139 -2.63028,2.51098 -3.87988,4.97337 -1.33334,2.62744 -0.98047,7.43666 0.79594,10.84702 1.21784,2.33802 3.26669,5.18345 3.73237,5.18345 0.18259,0 0.92014,-1.11072 1.63901,-2.46828 0.7189,-1.35756 1.44032,-2.56488 1.6032,-2.68292 0.16285,-0.11805 0.96457,-1.27708 1.78163,-2.57561 2.89451,-4.60036 3.84172,-5.82793 6.77095,-8.77523 l 2.96188,-2.98012 -2.08276,-0.55987 c -2.46784,-0.66339 -8.66121,-1.71104 -10.59864,-1.79284 -0.76349,-0.0322 -1.96737,0.33508 -2.7237,0.83103 z m 84.73335,58.50203 c -3.74276,1.19513 -8.63337,5.58662 -10.99262,9.87073 -0.5398,0.98022 -1.18242,3.03782 -1.42806,4.57245 -0.24563,1.53463 -0.55389,3.28603 -0.68501,3.892 -0.18297,0.84557 0.11629,1.5942 1.28698,3.21951 1.94954,2.70661 3.35929,7.70797 3.56653,12.65294 0.18271,4.35956 -0.91973,10.69393 -2.1746,12.49478 -0.45564,0.65388 -0.82843,1.3106 -0.82843,1.45939 0,0.14879 -0.39138,0.60678 -0.86973,1.01776 -0.74906,0.64355 -0.85944,1.14423 -0.79555,3.6084 0.0449,1.73087 0.38856,3.63929 0.86997,4.8309 0.43768,1.08336 0.88945,2.53384 1.00393,3.22328 0.74207,4.46912 6.0224,11.01438 10.7957,13.38186 2.21606,1.09913 2.88153,1.23681 5.09166,1.05339 2.87864,-0.23888 5.56336,-1.84335 6.2396,-3.72896 0.21418,-0.59722 0.67055,-1.66536 1.01416,-2.37365 0.36265,-0.74752 0.70905,-2.91557 0.82567,-5.16772 0.1825,-3.52411 0.1,-4.13428 -0.89983,-6.65364 -0.60542,-1.52556 -1.7496,-4.89861 -2.54261,-7.49567 -1.30617,-4.27764 -1.4404,-5.17017 -1.42649,-9.48552 0.0154,-4.76917 0.84348,-10.10922 2.0076,-12.94597 0.31539,-0.76856 0.82293,-2.21734 1.12787,-3.2195 0.30494,-1.00218 1.00143,-3.17433 1.54774,-4.82701 1.29175,-3.90766 2.04721,-8.77451 1.70027,-10.95335 -0.15154,-0.9517 -1.01817,-2.91031 -1.92583,-4.35247 -1.30516,-2.07373 -2.08007,-2.82954 -3.70522,-3.61389 -2.40676,-1.16157 -6.01607,-1.35018 -8.8037,-0.46004 z m 17.70563,19.85495 c -0.35198,0.14331 -0.63997,0.67983 -0.63997,1.19229 0,0.51245 -0.24983,1.31276 -0.55518,1.77846 -0.30535,0.4657 -0.68086,1.45965 -0.83446,2.20878 -0.15361,0.74913 -0.80077,2.19791 -1.43813,3.21951 -0.65395,1.04818 -1.21582,2.59837 -1.2896,3.55802 l -0.13076,1.70057 3.23667,0.4961 c 1.78017,0.27285 4.69318,0.72067 6.47335,0.99516 1.78017,0.2745 4.60214,0.77207 6.27105,1.10573 6.24955,1.24946 12.50159,2.05082 13.22487,1.69511 0.4033,-0.19834 1.27946,-0.36852 1.94702,-0.37816 1.0962,-0.0158 1.22552,-0.16631 1.33519,-1.55366 0.2077,-2.62744 -1.38165,-6.35043 -3.77449,-8.84162 -2.88768,-3.00634 -4.98564,-4.36091 -9.29363,-6.00049 -3.35432,-1.27663 -4.04514,-1.38782 -8.76661,-1.4111 -2.81895,-0.0139 -5.41334,0.092 -5.76532,0.2353 z m -6.29688,18.30526 c 0.009,2.33653 0.9948,8.97965 1.70349,11.4829 l 0.54689,1.93171 3.62504,0.26303 c 1.99377,0.14467 4.99051,0.485 6.65942,0.75629 1.66891,0.27129 5.1281,0.53926 7.68709,0.5955 4.07509,0.0896 4.85364,-0.0107 6.27105,-0.80767 0.89009,-0.50045 2.2062,-1.23695 2.9247,-1.63667 2.77543,-1.54405 5.32606,-6.53537 4.75337,-9.30189 -0.22127,-1.0689 -0.36414,-1.17736 -1.04303,-0.79186 -0.9,0.51105 -4.53083,0.2256 -8.45566,-0.66477 -1.44639,-0.32812 -4.0863,-0.81054 -5.86647,-1.07203 -5.22119,-0.76695 -10.80051,-1.70394 -12.5421,-2.10631 -0.89008,-0.20564 -2.6652,-0.3961 -3.94469,-0.42325 l -2.32636,-0.0494 0.007,1.82439 z m -33.26406,10.28095 c 0.25961,0.27545 0.60632,0.35831 0.77048,0.18414 0.16416,-0.17417 0.0359,-0.48884 -0.28498,-0.69926 -0.32089,-0.21042 -0.6676,-0.29328 -0.77047,-0.18414 -0.10287,0.10915 0.0254,0.42381 0.28497,0.69926 z m -26.01474,6.97172 c -1.55765,0.68143 -3.56034,1.82477 -4.45042,2.54075 -2.22303,1.78822 -7.37266,7.93249 -8.96837,10.70065 -1.17937,2.04593 -4.66069,11.4806 -4.51516,12.23652 0.032,0.16691 -0.0435,0.59323 -0.16819,0.94737 -0.37201,1.05697 -1.48458,7.39652 -1.58204,9.01462 -0.0498,0.82634 0.12587,1.92437 0.39026,2.44007 0.26444,0.51569 0.48077,1.80761 0.48077,2.87092 0,1.0633 0.26439,3.15258 0.58753,4.64284 0.32315,1.49026 0.77887,3.99381 1.01268,5.56345 1.05527,7.0845 3.44754,13.21401 6.42536,16.46315 3.52048,3.84123 7.0561,7.04947 9.34313,8.47803 1.41738,0.88536 2.72225,1.60975 2.89966,1.60975 0.17741,0 1.65215,0.65078 3.27721,1.44618 4.84032,2.36912 4.87511,2.37698 9.90413,2.23803 5.11699,-0.14137 6.15645,-0.43034 9.94668,-2.76515 2.18643,-1.34685 5.95434,-5.30896 5.96984,-6.27753 0.004,-0.24015 0.47192,-0.90474 1.04016,-1.47686 1.84265,-1.85521 6.41741,-12.20936 7.0205,-15.88965 1.45423,-8.87423 1.695,-10.99575 1.67519,-14.76047 -0.0122,-2.31947 -0.10217,-4.35453 -0.19993,-4.52236 -0.0978,-0.16783 -0.29715,-1.4574 -0.44308,-2.8657 -0.69164,-6.67483 -2.7267,-15.01767 -4.69289,-19.23871 -0.64365,-1.38179 -1.17027,-2.86058 -1.17027,-3.28621 0,-0.42563 -1.04686,-1.90473 -2.32635,-3.28689 -1.7153,-1.85293 -3.33594,-3.03849 -6.16991,-4.51348 -3.59961,-1.87351 -4.55679,-2.23823 -8.69855,-3.31458 -0.89009,-0.23131 -4.34928,-0.37852 -7.6871,-0.32713 -5.66008,0.0871 -6.25947,0.17686 -8.90084,1.33239 z m 26.90483,28.10702 c 3.80211,1.14217 3.83691,1.16655 5.05478,3.54071 1.29001,2.51476 2.33041,6.66625 3.067,12.23812 0.61597,4.65942 0.36167,5.90999 -2.00145,9.84245 -1.87126,3.11395 -4.39251,4.73106 -6.62045,4.24629 -2.23217,-0.4857 -6.44121,-2.90944 -6.80227,-3.91702 -0.18414,-0.51386 -0.51346,-1.05146 -0.73183,-1.19465 -1.2136,-0.7958 -3.47583,-12.52977 -3.06938,-15.92058 0.28304,-2.36138 2.36103,-6.72035 3.96301,-8.31311 1.35436,-1.34657 3.80082,-1.52549 7.14059,-0.52221 z m -4.50675,7.72513 c -0.82479,0.70939 -0.9535,1.19269 -0.94317,3.54145 0.009,2.1339 0.26358,3.24393 1.17973,5.15179 0.65377,1.36146 1.59179,2.63682 2.13114,2.89755 1.42688,0.6898 3.79265,0.56492 4.63584,-0.24471 1.75204,-1.68231 0.13193,-9.80916 -2.2646,-11.35973 -1.59803,-1.03393 -3.52741,-1.02838 -4.73894,0.0136 z m 3.58873,14.48443 c 0.27392,0.11758 0.82011,0.12474 1.21376,0.0159 0.39364,-0.10883 0.16953,-0.20504 -0.49803,-0.21379 -0.66757,-0.009 -0.98964,0.0803 -0.71573,0.19789 z m -64.5174,-7.85768 c -4.40357,5.32135 -4.16385,14.44488 0.4857,18.4873 1.79081,1.55695 4.41422,2.47329 5.99217,2.09304 3.20277,-0.7718 4.09783,-1.16346 5.37256,-2.35099 1.4107,-1.31418 1.41875,-1.34095 0.66966,-2.23559 -1.18531,-1.4157 -9.80444,-15.25593 -10.21598,-16.40443 -0.49076,-1.36955 -0.8898,-1.29842 -2.30411,0.41067 z m 389.13975,5.62398 c -2.68783,1.47473 -8.64314,11.97109 -9.7537,17.19112 -0.94291,4.43198 0.62348,9.82192 3.80513,13.09346 0.9641,0.99134 3.28026,2.93796 5.14703,4.32582 1.86677,1.38786 4.17402,3.13456 5.12723,3.88156 l 1.73312,1.35818 0.95514,-0.95206 c 1.19879,-1.19491 1.64142,-0.60737 1.49148,1.97973 -0.082,1.41524 0.12957,2.15677 0.93526,3.27753 0.5727,0.79666 1.04782,1.62341 1.05582,1.83722 0.0227,0.60707 1.66031,2.49109 3.26031,3.75097 1.66476,1.31085 4.00202,1.51782 6.18949,0.54808 1.51331,-0.67088 6.87126,-6.30102 6.40981,-6.73545 -0.16372,-0.15413 -1.11696,-0.5678 -2.1183,-0.91925 -2.36457,-0.82992 -7.72432,-5.06825 -9.00418,-7.12026 -2.10884,-3.3811 -2.77523,-5.21736 -2.64875,-7.29875 0.10227,-1.68274 0.25476,-2.01217 0.93145,-2.01217 0.67103,0 0.8479,0.36641 1.03603,2.14634 0.40454,3.82759 3.45752,7.84705 8.31428,10.94632 3.82164,2.43873 7.81142,1.98882 9.71623,-1.09566 0.76982,-1.24657 0.9027,-6.00551 0.18884,-6.76292 -0.24322,-0.25806 -0.44223,-0.83133 -0.44223,-1.27392 0,-1.0913 -2.84829,-6.75557 -4.40402,-8.75809 -0.69308,-0.89213 -1.26015,-1.83786 -1.26015,-2.10162 0,-0.26376 -0.36413,-0.8292 -0.80917,-1.25653 -0.44504,-0.42733 -0.80917,-0.95794 -0.80917,-1.17913 0,-1.0988 -8.12874,-10.26568 -11.07107,-12.48498 -7.08439,-5.34352 -10.3578,-6.37069 -13.97591,-4.38554 z m -202.11043,40.64713 c -1.37862,1.04074 -2.15822,2.02807 -4.69726,5.94881 -1.1171,1.725 -1.22864,2.17603 -1.04236,4.21501 0.11473,1.25581 0.37871,2.51142 0.58661,2.79024 0.20791,0.27881 0.46759,1.3971 0.57707,2.48509 0.10947,1.08799 0.9327,3.59921 1.82939,5.58048 0.8967,1.98127 2.31332,5.29812 3.14804,7.37077 0.83473,2.07266 1.66557,3.86543 1.84631,3.98395 0.18074,0.11852 0.82102,1.17539 1.42284,2.3486 0.60183,1.17322 1.24736,2.13312 1.43452,2.13312 0.18715,0 0.34028,0.2777 0.34028,0.61712 0,0.33941 1.85895,2.57573 4.13099,4.9696 4.07332,4.29173 9.03851,8.20227 13.30779,10.48111 1.20094,0.64103 3.00282,1.6077 4.00417,2.14815 1.00134,0.54045 3.27713,1.51531 5.0573,2.16635 3.73424,1.36569 7.00074,1.33274 10.52226,-0.10611 2.3302,-0.9521 3.44636,-2.7682 3.74794,-6.09829 0.19297,-2.13083 -0.78405,-6.91435 -1.72268,-8.43428 -0.63209,-1.02355 -5.02228,-5.00535 -9.20219,-8.34616 -4.11941,-3.29246 -7.28994,-7.74155 -10.04701,-14.09862 -4.12482,-9.5107 -5.56153,-11.95648 -9.13923,-15.55811 -2.14252,-2.15686 -6.78988,-5.07587 -8.79525,-5.52431 -2.82074,-0.63077 -5.73529,-0.26095 -7.30953,0.92748 z"
             style="fill:#000000" />
        </g>
      </g>
      <rect
         y="453.97931"
         x="187.85498"
         height="377.32941"
         width="586.23712"
         id="rect6037"
         style="fill:none;fill-opacity:1" />
    </g>
    <use
       x="0"
       y="0"
       xlink:href="#g6042"
       id="use6159"
       transform="matrix(0.00494436,0.21461291,-0.21086651,0.0050322,757.83275,350.35627)"
       width="100%"
       height="100%" />
    <use
       x="0"
       y="0"
       xlink:href="#use6159"
       id="use6161"
       transform="matrix(-0.9992149,-0.03961789,0.03961789,-0.9992149,1234.0479,1312.1077)"
       width="100%"
       height="100%" />
    <use
       x="0"
       y="0"
       xlink:href="#use6161"
       id="use6163"
       transform="matrix(0.04119231,0.99915124,-0.99915124,0.04119231,1051.7016,-33.967333)"
       width="100%"
       height="100%" />
    <use
       x="0"
       y="0"
       xlink:href="#use6163"
       id="use6165"
       transform="matrix(0.52791289,0.36611064,-0.46356035,0.45560239,451.86976,149.5145)"
       width="100%"
       height="100%" />
    <use
       x="0"
       y="0"
       xlink:href="#use6165"
       id="use6167"
       transform="matrix(0.2089827,-0.97791934,0.97791934,0.2089827,-286.2773,894.69564)"
       width="100%"
       height="100%" />
    <use
       x="0"
       y="0"
       xlink:href="#use6167"
       id="use6169"
       transform="matrix(0.82900031,-0.55924815,0.55924815,0.82900031,-188.61272,336.52962)"
       width="100%"
       height="100%" />
    <use
       x="0"
       y="0"
       xlink:href="#use6169"
       id="use6171"
       transform="matrix(-0.71684136,0.6972363,-0.6972363,-0.71684136,1304.1845,745.84709)"
       width="100%"
       height="100%" />
    <use
       x="0"
       y="0"
       xlink:href="#use6159"
       id="use6173"
       transform="matrix(0.38872772,0.28089309,-0.31832734,0.44053294,616.75123,131.11078)"
       width="100%"
       height="100%" />
    <use
       x="0"
       y="0"
       xlink:href="#use6173"
       id="use6175"
       transform="matrix(-0.01289786,0.99991682,-0.99991682,-0.01289786,1253.0299,40.748895)"
       width="100%"
       height="100%" />
    <use
       x="0"
       y="0"
       xlink:href="#use6175"
       id="use6177"
       transform="matrix(0.31480119,0.94915763,-0.94915763,0.31480119,1021.0738,-136.47773)"
       width="100%"
       height="100%" />
    <use
       x="0"
       y="0"
       xlink:href="#use6177"
       id="use6179"
       transform="matrix(-0.85963473,0.51090914,-0.51090914,-0.85963473,1405.0932,889.66568)"
       width="100%"
       height="100%" />
    <use
       x="0"
       y="0"
       xlink:href="#use6179"
       id="use6181"
       transform="matrix(0.99233034,0.12361429,-0.12361429,0.99233034,-99.208293,-47.396081)"
       width="100%"
       height="100%" />
    <use
       x="0"
       y="0"
       xlink:href="#use6181"
       id="use6183"
       transform="matrix(-0.96393822,-0.2661261,0.2661261,-0.96393822,581.92872,1335.5)"
       width="100%"
       height="100%" />
    <use
       x="0"
       y="0"
       xlink:href="#use6183"
       id="use6185"
       transform="matrix(0.49728183,0,0,0.53552282,94.497578,262.15077)"
       width="100%"
       height="100%" />
    <use
       x="0"
       y="0"
       xlink:href="#use6185"
       id="use6187"
       transform="matrix(-0.96018322,0.27937105,-0.27937105,-0.96018322,722.58352,1149.2201)"
       width="100%"
       height="100%" />
    <use
       x="0"
       y="0"
       xlink:href="#use6187"
       id="use6189"
       transform="matrix(0.00561032,-0.99998426,0.99998426,0.00561032,-2.4674865,756.37245)"
       width="100%"
       height="100%" />
    <use
       x="0"
       y="0"
       xlink:href="#use6189"
       id="use6191"
       transform="matrix(-0.95761779,-0.28804195,0.28804195,-0.95761779,1086.3645,1121.4539)"
       width="100%"
       height="100%" />
    <use
       x="0"
       y="0"
       xlink:href="#use6191"
       id="use6193"
       transform="matrix(0.988471,-0.1514103,0.1514103,0.988471,-62.997815,427.5472)"
       width="100%"
       height="100%" />
    <use
       x="0"
       y="0"
       xlink:href="#use6193"
       id="use6195"
       transform="matrix(-0.99859748,-0.05294403,0.05294403,-0.99859748,1211.2888,1646.052)"
       width="100%"
       height="100%" />
    <use
       x="0"
       y="0"
       xlink:href="#use6195"
       id="use6197"
       transform="matrix(-0.0034865,-0.99999392,0.99999392,-0.0034865,-178.66137,1470.9476)"
       width="100%"
       height="100%" />
    <use
       x="0"
       y="0"
       xlink:href="#use6197"
       id="use6199"
       transform="matrix(-0.99976754,-0.02156062,0.02156062,-0.99976754,1232.5973,1300.9189)"
       width="100%"
       height="100%" />
    <use
       x="0"
       y="0"
       xlink:href="#use6199"
       id="use6201"
       transform="matrix(0.5415183,0.23680449,-0.24790571,0.56690429,81.334682,135.29196)"
       width="100%"
       height="100%" />
    <use
       x="0"
       y="0"
       xlink:href="#use6201"
       id="use6203"
       transform="matrix(-0.99371482,-0.11194132,0.11194132,-0.99371482,554.34855,1106.0392)"
       width="100%"
       height="100%" />
    <use
       x="0"
       y="0"
       xlink:href="#use6203"
       id="use6205"
       transform="matrix(0.0997766,0.99500986,-0.99500986,0.0997766,792.98938,159.02464)"
       width="100%"
       height="100%" />
    <use
       x="0"
       y="0"
       xlink:href="#use6205"
       id="use6207"
       transform="matrix(0.84955454,-0.5275008,0.5275008,0.84955454,-292.79308,336.01811)"
       width="100%"
       height="100%" />
    <use
       x="0"
       y="0"
       xlink:href="#use6207"
       id="use6209"
       transform="matrix(0.84470034,-0.53523952,0.53523952,0.84470034,-242.36604,318.04367)"
       width="100%"
       height="100%" />
    <use
       x="0"
       y="0"
       xlink:href="#use6209"
       id="use6211"
       transform="matrix(-0.02349326,-0.999724,0.999724,-0.02349326,-414.47965,1004.9026)"
       width="100%"
       height="100%" />
    <use
       x="0"
       y="0"
       xlink:href="#use6211"
       id="use6213"
       transform="matrix(-0.96975931,0.24406326,-0.24406326,-0.96975931,771.2758,1311.6243)"
       width="100%"
       height="100%" />
    <use
       x="0"
       y="0"
       xlink:href="#use6213"
       id="use6215"
       transform="matrix(0.92629717,-0.37679379,0.37679379,0.92629717,-88.455516,216.42452)"
       width="100%"
       height="100%" />
    <use
       x="0"
       y="0"
       xlink:href="#use6215"
       id="use6217"
       transform="matrix(-0.96737615,-0.2533444,0.2533444,-0.96737615,710.31596,1592.3637)"
       width="100%"
       height="100%" />
    <use
       x="0"
       y="0"
       xlink:href="#use6217"
       id="use6219"
       transform="matrix(0.08847427,0.99607846,-0.99607846,0.08847427,1159.0729,257.85969)"
       width="100%"
       height="100%" />
    <use
       x="0"
       y="0"
       xlink:href="#use6219"
       id="use6221"
       transform="matrix(-0.48889169,0.87234449,-0.87234449,-0.48889169,1339.7553,489.54957)"
       width="100%"
       height="100%" />
    <use
       x="0"
       y="0"
       xlink:href="#use6221"
       id="use6223"
       transform="matrix(0.2557339,0.96674721,-0.96674721,0.2557339,830.21884,-23.202436)"
       width="100%"
       height="100%" />
    <use
       x="0"
       y="0"
       xlink:href="#use6223"
       id="use6225"
       transform="matrix(-0.74081292,-0.6717114,0.6717114,-0.74081292,431.82514,1225.7528)"
       width="100%"
       height="100%" />
    <use
       x="0"
       y="0"
       xlink:href="#use6225"
       id="use6227"
       transform="matrix(0.69064207,0,0,0.65134233,58.162215,166.33841)"
       width="100%"
       height="100%" />
    <use
       x="0"
       y="0"
       xlink:href="#use6227"
       id="use6229"
       transform="matrix(-0.97651019,-0.2154712,0.2154712,-0.97651019,623.192,1089.5244)"
       width="100%"
       height="100%" />
    <use
       x="0"
       y="0"
       xlink:href="#use6229"
       id="use6231"
       transform="matrix(-0.19668212,-0.98046731,0.98046731,-0.19668212,-61.183579,953.55221)"
       width="100%"
       height="100%" />
    <use
       x="0"
       y="0"
       xlink:href="#use6231"
       id="use6233"
       transform="matrix(0.97675163,-0.21437412,0.21437412,0.97675163,67.664531,74.923238)"
       width="100%"
       height="100%" />
    <use
       x="0"
       y="0"
       xlink:href="#use6233"
       id="use6235"
       transform="matrix(-0.06810605,-0.99767809,0.99767809,-0.06810605,99.553828,1059.4723)"
       width="100%"
       height="100%" />
    <use
       x="0"
       y="0"
       xlink:href="#use6235"
       id="use6237"
       transform="matrix(-0.98574225,-0.16826232,0.16826232,-0.98574225,978.86793,1075.7312)"
       width="100%"
       height="100%" />
    <use
       x="0"
       y="0"
       xlink:href="#use6233"
       id="use6239"
       transform="matrix(0.70728246,0.70693106,-0.70693106,0.70728246,679.30517,-207.03887)"
       width="100%"
       height="100%"
       inkscape:transform-center-x="4.6309078"
       inkscape:transform-center-y="-1.5436302" />
    <use
       x="0"
       y="0"
       xlink:href="#use6239"
       inkscape:transform-center-x="3.1100469"
       inkscape:transform-center-y="3.7624364"
       id="use6241"
       transform="matrix(0.36069161,-0.93268514,0.93268514,0.36069161,-24.084613,1010.7722)"
       width="100%"
       height="100%" />
    <use
       x="0"
       y="0"
       xlink:href="#use6241"
       inkscape:transform-center-x="-2.2882924"
       inkscape:transform-center-y="-4.3118965"
       id="use6243"
       transform="matrix(-0.97949552,0.20146595,-0.20146595,-0.97949552,1502.7677,886.22975)"
       width="100%"
       height="100%" />
    <use
       x="0"
       y="0"
       xlink:href="#use6243"
       inkscape:transform-center-x="-2.2882924"
       inkscape:transform-center-y="-4.3118965"
       id="use6245"
       transform="translate(34.3459,234.82562)"
       width="100%"
       height="100%" />
    <use
       x="0"
       y="0"
       xlink:href="#use6245"
       inkscape:transform-center-x="-4.3893456"
       inkscape:transform-center-y="2.1359726"
       id="use6247"
       transform="matrix(0.03499879,0.99938735,-0.99938735,0.03499879,1451.696,-27.270816)"
       width="100%"
       height="100%" />
    <use
       x="0"
       y="0"
       xlink:href="#use6247"
       inkscape:transform-center-x="4.5777175"
       inkscape:transform-center-y="-1.6951494"
       id="use6249"
       transform="matrix(-0.9951778,0.09808739,-0.09808739,-0.9951778,1518.7122,1405.4957)"
       width="100%"
       height="100%" />
    <use
       x="0"
       y="0"
       xlink:href="#use6249"
       inkscape:transform-center-x="-0.83157713"
       inkscape:transform-center-y="-4.8101413"
       id="use6251"
       transform="matrix(0.18242396,0.98321996,-0.98321996,0.18242396,1142.5731,-66.108449)"
       width="100%"
       height="100%" />
    <use
       x="0"
       y="0"
       xlink:href="#use6251"
       inkscape:transform-center-x="0.4453419"
       inkscape:transform-center-y="4.8611511"
       id="use6253"
       transform="matrix(-0.99681495,0.07974936,-0.07974936,-0.99681495,1154.9669,1517.6338)"
       width="100%"
       height="100%" />
    <use
       x="0"
       y="0"
       xlink:href="#use6253"
       inkscape:transform-center-x="-4.717567"
       inkscape:transform-center-y="1.2544793"
       id="use6255"
       transform="matrix(0.16774626,-0.98583021,0.98583021,0.16774626,-323.16309,1213.1659)"
       width="100%"
       height="100%" />
    <use
       x="0"
       y="0"
       xlink:href="#use6255"
       inkscape:transform-center-x="-4.8571596"
       inkscape:transform-center-y="0.48700623"
       id="use6257"
       transform="matrix(0.98723203,-0.15928881,0.15928881,0.98723203,-303.95199,58.584688)"
       width="100%"
       height="100%" />
    <use
       x="0"
       y="0"
       xlink:href="#use6257"
       inkscape:transform-center-x="-0.86844134"
       inkscape:transform-center-y="-4.8035678"
       id="use6259"
       transform="matrix(0.07884685,-0.99688674,0.99688674,0.07884685,-432.08397,1040.2028)"
       width="100%"
       height="100%" />
    <use
       x="0"
       y="0"
       xlink:href="#use6259"
       inkscape:transform-center-x="-0.13746516"
       inkscape:transform-center-y="4.879493"
       id="use6261"
       transform="matrix(-0.9786472,0.20554722,-0.20554722,-0.9786472,867.47055,1399.0342)"
       width="100%"
       height="100%" />
  </g>
</svg>
