<?xml version="1.0" encoding="UTF-8" standalone="no"?>
<!-- Created with Inkscape (http://www.inkscape.org/) -->

<svg
   xmlns:dc="http://purl.org/dc/elements/1.1/"
   xmlns:cc="http://creativecommons.org/ns#"
   xmlns:rdf="http://www.w3.org/1999/02/22-rdf-syntax-ns#"
   xmlns:svg="http://www.w3.org/2000/svg"
   xmlns="http://www.w3.org/2000/svg"
   xmlns:sodipodi="http://sodipodi.sourceforge.net/DTD/sodipodi-0.dtd"
   xmlns:inkscape="http://www.inkscape.org/namespaces/inkscape"
   width="210mm"
   height="297mm"
   viewBox="0 0 744.09448819 1052.3622047"
   id="svg2"
   version="1.1"
   inkscape:version="0.91 r13725"
   inkscape:export-filename="/Users/robbaines/go/src/github.com/telecoda/inktober-2016/03 bw vector/gopher-9.svg"
   inkscape:export-xdpi="299.96201"
   inkscape:export-ydpi="299.96201"
   sodipodi:docname="gopher-9.svg">
  <defs
     id="defs4" />
  <sodipodi:namedview
     id="base"
     pagecolor="#ffffff"
     bordercolor="#666666"
     borderopacity="1.0"
     inkscape:pageopacity="0.0"
     inkscape:pageshadow="2"
     inkscape:zoom="1.1393416"
     inkscape:cx="372.04724"
     inkscape:cy="526.1811"
     inkscape:document-units="px"
     inkscape:current-layer="layer2"
     showgrid="false"
     inkscape:window-width="1962"
     inkscape:window-height="1349"
     inkscape:window-x="2028"
     inkscape:window-y="39"
     inkscape:window-maximized="0" />
  <metadata
     id="metadata7">
    <rdf:RDF>
      <cc:Work
         rdf:about="">
        <dc:format>image/svg+xml</dc:format>
        <dc:type
           rdf:resource="http://purl.org/dc/dcmitype/StillImage" />
        <dc:title></dc:title>
      </cc:Work>
    </rdf:RDF>
  </metadata>
  <g
     inkscape:groupmode="layer"
     id="layer2"
     inkscape:label="background">
    <rect
       style="fill:#ffffff;fill-opacity:1"
       id="rect3644"
       width="641.59863"
       height="657.39722"
       x="32.474895"
       y="7.8992991" />
  </g>
  <g
     inkscape:label="lines"
     inkscape:groupmode="layer"
     id="layer1">
    <path
       style="fill:#101010"
       d="m 205.40039,74.541016 c -0.43633,-0.01148 -0.87098,-0.01024 -1.30273,0.002 -4.4409,0.125425 -8.63438,1.503214 -12.44922,4.123047 -7.03482,4.83114 -8.78957,6.776583 -11.27539,12.501953 l -2.26563,5.21875 -0.30273,11.570314 c -0.33977,12.94492 0.55141,24.03466 2.36719,29.41992 1.25837,3.7321 3.25876,11.35436 3.25976,12.42383 5.2e-4,0.4284 1.07062,3.27148 2.37695,6.31641 1.30633,3.04492 2.375,6.13078 2.375,6.85742 0,0.72664 -1.03433,3.36832 -2.29882,5.87109 -2.87899,5.69834 -7.46394,17.57008 -8.24415,21.34571 -0.32412,1.56859 -1.15705,4.99114 -1.85156,7.60547 -1.68643,6.34811 -4.89456,22.67531 -6.13476,31.22851 -1.16735,8.05074 -1.38919,20.636 -0.5293,29.93945 1.4488,15.67505 1.77116,18.63796 2.48633,22.80664 0.41861,2.44002 1.11692,6.57515 1.55273,9.18946 0.82417,4.94388 1.31964,7.03375 2.92188,12.35742 0.52455,1.74288 1.22871,5.45163 1.5664,8.24023 0.33768,2.78859 1.06428,6.88235 1.61328,9.09766 0.60309,2.43352 0.90662,4.25513 0.9336,5.92187 7e-4,0.002 0.001,0.004 0.002,0.006 0.11933,0.37135 0.2056,0.75158 0.25391,1.13868 0.0141,0.11293 0.018,0.22659 0.0293,0.33984 0.031,0.3106 0.0289,0.25647 0.0801,0.56836 0.0128,0.11836 0.0207,0.23558 0.0371,0.35352 0.006,0.0411 0.10164,0.56461 0.10742,0.5996 0.0166,0.10067 0.0288,0.20199 0.0449,0.30274 0.0408,0.25528 0.0508,0.28753 0.10156,0.54492 0.0606,0.29719 0.17408,0.57525 0.3125,0.84375 0.0519,0.10071 0.10916,0.19865 0.16211,0.29883 0.15561,0.29443 0.13441,0.25779 0.25586,0.53125 0.022,0.0868 0.0502,0.17171 0.0664,0.25976 0.0538,0.29315 -0.005,0.19004 0.0703,0.44532 0.045,0.15296 0.11754,0.29671 0.16406,0.44922 0.0271,0.0888 0.0458,0.17952 0.0684,0.26953 0.006,0.0964 0.0155,0.19251 0.0176,0.28906 0.002,0.0698 -0.0128,0.14132 -0.008,0.21094 0.003,0.0401 0.0354,0.11098 0.0605,0.16992 0.31354,0.22384 0.67057,0.76605 0.94531,1.60156 0.31521,0.95858 0.78422,2.1705 1.04102,2.69336 1.40851,2.86783 3.3151,7.48043 3.91016,9.46094 0.37402,1.24485 1.89255,5.30115 3.375,9.01367 1.48245,3.71253 2.69531,7.03955 2.69531,7.39453 0,0.35497 0.3983,1.47873 0.88476,2.4961 0.87268,1.8251 0.84987,1.93172 -1.66406,8.01171 -2.33042,5.63616 -2.86802,6.45258 -6.29687,9.57422 -2.06184,1.87711 -4.46081,4.10497 -5.33204,4.94922 -3.1033,3.00716 -9.03803,7.00164 -12.9375,8.70899 -15.62364,6.8407 -21.27357,10.08266 -26.08007,14.96484 -2.00155,2.03306 -4.46712,4.46955 -5.48047,5.41602 -2.18524,2.04097 -2.48556,2.53074 -5.96289,9.75781 -3.43084,7.13045 -4.00517,10.54367 -2.87696,17.09961 0.95191,5.53143 2.44286,8.49626 6.69336,13.31445 3.72005,4.21691 6.21057,6.05815 11.01953,8.14453 6.31929,2.74165 10.02485,2.83038 16.48829,0.40039 6.14227,-2.30925 14.16455,-7.03711 19.79492,-11.66601 5.21339,-4.28607 14.10674,-14.24749 18.16992,-20.35352 5.93365,-8.91692 10.73831,-14.52268 14.89453,-17.37695 6.3583,-4.36655 6.55682,-4.41035 10.63477,-2.33008 2.93105,1.49521 4.52887,2.98971 9.45507,8.83398 3.26063,3.8683 7.46254,8.74449 9.33594,10.83594 5.04201,5.62885 11.30484,14.03351 12.42774,16.67578 0.54195,1.27525 2.09406,4.06413 3.44726,6.19727 1.3532,2.13315 3.10931,5.41625 3.90235,7.29687 0.79306,1.88061 2.23917,4.54027 3.21484,5.91016 2.16644,3.04182 2.20825,4.15593 0.25977,6.83594 -1.88043,2.58638 -4.75084,7.9716 -6.64063,12.45898 -1.41879,3.36894 -1.93327,5.86784 -2.92187,14.16992 -1.1067,9.29375 -4.8469,14.67162 -12.1836,17.51953 -1.03173,0.4005 -2.69212,1.54556 -3.68945,2.54493 -1.73245,1.73576 -1.81078,1.99413 -1.73828,5.77929 0.12331,6.43776 1.0168,9.17728 4.01953,12.33008 2.56114,2.68913 3.66966,3.47713 7.99023,5.69336 1.98779,1.01963 2.10541,1.01091 3.13477,-0.22461 1.02701,-1.23269 1.03135,-1.33303 0.13086,-2.52734 -0.51576,-0.68407 -1.87195,-1.43248 -3.01367,-1.66407 -2.46202,-0.49926 -7.73738,-5.36839 -8.08985,-7.46679 -1.32937,-7.91419 -0.86809,-9.0332 5.13281,-12.45703 8.25511,-4.70997 9.45129,-7.02646 11.4668,-22.21094 1.00468,-7.569 5.08449,-17.7399 8.5,-21.18945 1.51094,-1.526 1.6841,-1.56179 3.13672,-0.66016 0.84565,0.52488 2.92463,2.59057 4.61914,4.58984 4.10898,4.84798 9.9806,10.98722 11.77344,12.3086 1.74033,1.28268 6.86061,3.7439 11.56836,5.5625 5.76662,2.22764 7.91992,3.27225 7.91992,3.83984 0,0.29862 -1.8577,2.7739 -4.12891,5.5 -2.27122,2.72609 -5.24513,6.98909 -6.60937,9.47461 -2.37127,4.32024 -3.21971,6.85229 -5.38672,16.06641 -0.53287,2.26574 -2.0235,6.32319 -3.31055,9.01562 -2.2552,4.71778 -2.50489,5.0024 -6.89648,7.85938 l -4.55664,2.96484 -3.43164,-0.71875 c -5.69732,-1.19279 -7.1547,-1.90668 -9.62891,-4.71094 -3.05431,-3.46175 -3.49579,-6.18558 -1.96289,-12.14258 1.28193,-4.98162 3.33965,-8.01155 7.22656,-10.64453 3.0719,-2.08089 3.34253,-3.23985 0.82813,-3.54101 -2.61491,-0.3132 -7.81864,4.49233 -9.81836,9.0664 -1.30698,2.98953 -2.48542,7.93564 -2.48242,10.41211 0.004,3.0025 0.95858,7.06365 1.98632,8.45118 1.52077,2.05317 6.43032,5.59533 8.9668,6.46875 5.49462,1.89205 7.86893,1.88488 11.66992,-0.0332 5.97913,-3.01726 8.54027,-5.38888 10.6211,-9.83203 2.72391,-5.81632 3.62733,-8.10656 3.97265,-10.08008 1.12732,-6.44279 3.57727,-13.5603 6.10547,-17.73242 3.17903,-5.24615 10.89039,-13.93316 12.38086,-13.94726 1.51618,-0.0143 7.68378,1.59211 10.66016,2.77539 1.39701,0.55539 4.56079,1.28465 7.02929,1.62109 2.46849,0.33645 6.15072,1.02244 8.1836,1.52539 3.66204,0.906 17.60015,2.89967 29.30469,4.19141 3.33973,0.36858 8.09205,1.09143 10.56054,1.60547 2.4685,0.51403 9.59796,1.37569 15.8418,1.91406 13.16574,1.13521 18.51577,0.65037 22.96875,-2.07813 4.36894,-2.67702 11.43949,-8.43567 14.38281,-11.71289 3.59617,-4.00413 7.89948,-6.32921 15.71289,-8.48828 7.16481,-1.97985 9.95118,-2.02604 13.34766,-0.22265 1.29956,0.68999 2.63093,1.25522 2.95703,1.25585 0.66959,0.002 6.36962,4.53175 7.99023,6.34961 2.27603,2.55305 13.48943,7.13097 19.37305,7.91016 6.24624,0.8272 8.15835,4.64702 5.49024,10.9668 -1.40694,3.33252 -6.92865,8.99609 -8.77149,8.99609 -0.52765,0 -1.69722,-1.11596 -2.59766,-2.48047 -2.03732,-3.08752 -5.19856,-5.35184 -9.24804,-6.62109 -3.39991,-1.06567 -3.98828,-0.93902 -3.98828,0.86328 0,1.40722 1.89587,3.16687 3.41797,3.17187 2.84326,0.009 4.81415,1.31046 6.93359,4.57813 3.51815,5.42417 4.0067,6.95541 3.59766,11.29492 -0.23993,2.54547 -0.89803,4.87425 -2.00782,7.10547 -1.53818,3.09252 -1.83281,3.35509 -4.28906,3.8457 -4.21969,0.84285 -6.85631,0.60054 -8.7793,-0.80664 -0.97679,-0.71477 -2.17752,-1.30173 -2.66796,-1.30273 -0.49057,-10e-4 -1.95723,-1.07176 -3.25977,-2.37891 -1.30253,-1.30716 -3.236,-3.0895 -4.29688,-3.96094 -1.06087,-0.87143 -4.19512,-3.80683 -6.96484,-6.52343 -2.76973,-2.71659 -6.45593,-5.79928 -8.18945,-6.84961 -1.73351,-1.05033 -5.44672,-3.54448 -8.25391,-5.54492 -5.72109,-4.07694 -14.09576,-8.33399 -16.39648,-8.33399 -0.83367,0 -1.83309,0.45896 -2.22071,1.01953 -0.59672,0.86302 -0.56237,1.14546 0.22657,1.83789 0.51246,0.44976 1.78502,1.0097 2.82617,1.24414 1.90507,0.42898 12.03831,6.11145 15.47656,8.67969 1.01644,0.75924 4.11449,3.03527 6.88672,5.05664 2.77223,2.02138 6.21752,4.99238 7.65625,6.60352 1.43873,1.61114 3.56553,3.68737 4.72461,4.61328 1.15909,0.92591 3.96771,3.46057 6.24219,5.63281 2.27448,2.17223 5.01032,4.2407 6.07812,4.5957 1.06781,0.35501 3.24649,1.046 4.84375,1.53711 4.70347,1.44619 6.86474,1.25362 9.64063,-0.85937 1.34931,-1.02709 3.04291,-2.95156 3.76367,-4.27735 1.29423,-2.38066 2.99026,-9.82684 3.2207,-14.13476 0.0653,-1.22001 0.15321,-2.56737 0.19531,-2.99414 0.0421,-0.42677 0.73067,-1.2022 1.5293,-1.72266 0.79863,-0.52046 2.82432,-2.45355 4.50195,-4.29492 2.29631,-2.5204 3.30743,-4.2068 4.0918,-6.82422 2.86839,-9.5717 -0.23852,-14.03568 -11.48437,-16.5 -9.16389,-2.0081 -13.63819,-4.05471 -16.83789,-7.70117 -0.90443,-1.03067 -3.87585,-3.235 -6.60157,-4.89844 -2.91056,-1.77625 -5.0277,-3.47223 -5.13086,-4.10937 -0.0966,-0.59667 0.73461,-2.32308 1.84766,-3.83594 2.78347,-3.7833 5.11271,-7.74952 6.51562,-11.09766 0.64974,-1.55066 1.94757,-4.26068 2.88477,-6.02148 5.94913,-11.1772 9.0218,-19.2002 9.83008,-25.67774 0.30687,-2.45927 1.15077,-5.461 2.11133,-7.5039 1.74354,-3.70812 1.89088,-6.62814 0.35156,-6.97852 -1.23823,-0.28186 -5.14844,9.27712 -5.14844,12.58594 0,3.43956 -1.60388,8.64203 -4.47265,14.51563 -1.40525,2.87703 -3.05144,6.33368 -3.66016,7.67968 -4.00577,8.85745 -7.7042,15.42631 -12.41797,22.0586 -2.80414,3.94542 -5.30666,5.44981 -11.35156,6.82617 -2.30722,0.52532 -5.39904,1.50422 -6.8711,2.17578 -1.47208,0.67157 -2.98436,1.22053 -3.36132,1.2207 -1.03621,4.9e-4 -6.55631,4.31779 -7.80665,6.10547 -1.43423,2.05063 -7.37271,7.09627 -12.36523,10.50586 l -3.96094,2.70508 -10.15625,-0.14063 c -9.36381,-0.12806 -18.16445,-1.13587 -28.91601,-3.31445 -1.74247,-0.35307 -4.76105,-0.64448 -6.70703,-0.64648 -1.94598,-0.002 -4.67852,-0.26784 -6.07227,-0.58985 -1.39375,-0.32201 -5.14727,-0.91761 -8.3418,-1.32422 -3.19452,-0.40662 -8.91953,-1.42566 -12.72265,-2.26562 -3.80312,-0.83996 -7.86032,-1.52734 -9.01563,-1.52734 -1.1553,0 -5.40881,-1.1617 -9.45312,-2.58204 -4.04432,-1.42034 -9.0179,-3.10556 -11.05078,-3.74414 -5.21305,-1.63757 -16.49568,-6.25753 -19.00782,-7.7832 -1.16165,-0.70549 -3.06297,-2.45653 -4.22461,-3.89062 -1.16165,-1.43409 -2.82407,-3.1538 -3.69531,-3.82227 -1.39617,-1.07125 -5.66752,-5.69722 -9.72851,-10.53711 -1.69612,-2.02142 -5.68969,-8.75486 -7.6836,-12.95508 -0.82736,-1.74287 -2.54103,-4.73713 -3.80859,-6.65429 -1.26756,-1.91716 -3.40498,-5.48381 -4.74805,-7.92383 -2.95674,-5.37166 -7.53751,-11.32524 -15.03125,-19.53321 -5.0909,-5.57613 -7.6999,-9.05216 -7.22265,-9.625 0.0972,-0.11672 1.4823,0.36126 3.07812,1.0625 1.59582,0.70123 4.80367,1.8516 7.12695,2.55665 2.32329,0.70506 5.65011,1.80302 7.39258,2.43945 1.74246,0.63642 6.61326,2.0198 10.82422,3.07422 10.67113,2.67205 17.08643,4.84431 19.68945,6.66406 1.22229,0.85449 3.5893,2.16251 5.25977,2.9082 1.67047,0.7457 4.2492,2.54779 5.73047,4.00391 1.48126,1.45612 3.4503,3.21691 4.375,3.91406 2.42842,1.83083 5.60309,6.31097 8.08398,11.4082 2.87589,5.90879 7.02292,15.6215 7.02344,16.44922 7.4e-4,1.19169 3.37037,5.1508 6.33594,7.44336 6.61169,5.11122 9.02309,6.84571 9.51758,6.84571 0.28717,0 3.67367,1.25697 7.52343,2.79296 5.8771,2.34485 8.14042,2.91435 14.11914,3.54688 7.34196,0.77675 17.49978,0.23587 24.54493,-1.30664 1.74247,-0.38154 4.51731,-0.51834 6.16601,-0.30274 2.2915,0.29966 3.09951,0.18056 3.43164,-0.50585 0.46567,-0.96241 6.58829,-4.85743 7.63477,-4.85743 1.85905,0 11.18429,-7.68997 16.0332,-13.2207 2.90411,-3.31246 5.36515,-6.32654 5.46875,-6.69922 1.29762,-4.66823 9.76624,-22.64152 11.33203,-24.05078 1.12676,-1.01412 2.21099,-1.18094 7.3086,-1.11914 6.70248,0.0814 9.82512,-0.44561 17.86914,-3.02149 3.04932,-0.97644 6.96847,-2.13483 8.71093,-2.57226 4.46044,-1.11972 16.49554,-5.65203 18.96485,-7.14258 1.34496,-0.81186 2.66004,-1.13135 3.76562,-0.91601 0.93444,0.18202 1.92211,0.0622 2.19532,-0.26563 0.31006,-0.37217 2.79989,2.2063 6.6289,6.86524 6.61005,8.0427 7.65903,9.66953 11.05078,17.14648 3.18067,7.01163 7.21319,13.89958 9.53516,16.28516 1.10256,1.13277 3.55501,4.45192 5.45117,7.375 3.13016,4.82539 8.22504,10.60312 9.41211,10.67382 0.26035,0.0155 1.68586,0.97474 3.16797,2.13282 3.20601,2.50509 8.56219,4.645 14.13867,5.64843 11.09259,1.99599 20.5602,-5.30051 24.2207,-18.66797 1.0559,-3.85568 1.11475,-4.75529 0.62305,-9.50585 -0.8897,-8.59624 -1.45657,-10.35617 -5.07617,-15.76172 -3.7901,-5.6601 -8.34331,-10.83891 -15.63477,-17.78516 -8.44083,-8.04125 -14.17356,-15.32337 -21.47265,-27.26953 -2.08906,-3.41908 -8.09571,-17.4605 -8.09571,-18.92578 0,-0.59702 0.33311,-1.41867 0.74024,-1.82422 0.40712,-0.40556 0.89711,-1.50885 1.08984,-2.45313 0.19274,-0.94428 3.41062,-9.13237 7.15039,-18.19531 3.73977,-9.06293 6.97196,-17.32603 7.18164,-18.36328 0.38027,-1.88119 2.31516,-6.97114 4.70508,-12.375 0.69372,-1.56859 1.51479,-3.99242 1.82422,-5.38672 0.30943,-1.3943 1.37214,-5.67155 2.36133,-9.50586 3.55519,-13.78062 5.16119,-20.98468 5.58398,-25.03515 0.23649,-2.26574 0.79491,-6.6851 1.24024,-9.82227 1.54406,-10.87706 2.02798,-23.88046 1.65039,-44.36523 -0.19917,-10.8058 -0.59321,-21.07158 -0.875,-22.81446 -0.28179,-1.74287 -0.83692,-5.86188 -1.23242,-9.15234 -0.84687,-7.04559 -0.56837,-8.09449 3.36914,-12.72852 3.4031,-4.00503 13.63857,-28.44825 15.91796,-38.01171 2.0971,-8.79875 2.3296,-18.4807 0.5879,-24.53907 -0.6232,-2.16759 -1.13868,-4.30524 -1.13868,-4.75195 -0.006,-0.9752 -2.52221,-6.08727 -4.88672,-9.92774 -1.71748,-2.78941 -3.84249,-4.47773 -10.68359,-8.48437 -3.03984,-1.78039 -4.76437,-2.3062 -9.70703,-2.96094 -7.45669,-0.98778 -15.60295,-0.40775 -19.33398,1.37696 -1.45205,0.69457 -4.8978,2.20324 -7.65625,3.35156 -2.76492,1.15101 -5.84514,2.92517 -6.86524,3.95312 -1.78245,1.79616 -2.00558,1.85383 -6.08594,1.57032 -7.07046,-0.49128 -11.33787,1.35804 -19.24609,8.3457 -2.21749,1.95936 -3.64164,2.81771 -4.19336,2.52734 -0.45948,-0.24182 -1.69684,-0.47438 -2.75,-0.51758 -1.05316,-0.0432 -2.32214,-0.48421 -2.82031,-0.98046 -0.62162,-0.61922 -2.5059,-0.94381 -6.00586,-1.03321 -8.68256,-0.22169 -12.85813,-1.2344 -25.16406,-6.09961 -3.12075,-1.2338 -12.04647,-6.31798 -13.33399,-7.5957 -1.22035,-1.21107 -0.94846,-2.51821 2.30664,-11.13672 0.69558,-1.841691 1.56048,-3.482899 1.92188,-3.648439 0.36139,-0.16555 2.31868,0.292571 4.35156,1.019531 4.31371,1.54259 10.22073,3.342278 16.89062,5.144538 2.61039,0.70534 5.81874,1.93203 7.12891,2.72656 1.31016,0.79452 4.28413,2.07223 6.60742,2.83789 2.32329,0.76564 5.84667,2.36643 7.83008,3.55859 1.9834,1.19215 4.01406,2.16797 4.51367,2.16797 0.92626,0 2.17578,-1.14296 2.17578,-1.99023 0,-0.78263 -10.64169,-6.69766 -13.46484,-7.48438 -1.45206,-0.40463 -4.1846,-1.47106 -6.07226,-2.36914 -3.23635,-1.53973 -11.67781,-4.343292 -18.74415,-6.224611 -1.74247,-0.463909 -3.99918,-1.258638 -5.01562,-1.767578 -1.01644,-0.50894 -3.43339,-1.248911 -5.36914,-1.644531 -1.93576,-0.39563 -4.4464,-1.11366 -5.58008,-1.59375 -1.13368,-0.48009 -4.30223,-1.205338 -7.04101,-1.611328 -2.73879,-0.40598 -6.52444,-1.003105 -8.41211,-1.328125 -4.04323,-0.69616 -19.47934,-2.228401 -31.41602,-3.119141 -14.94163,-1.11498 -39.01881,-1.39167 -62.04297,-0.71289 -29.82144,0.87918 -42.93832,2.292785 -53.48242,5.765625 -2.53252,0.83412 -4.71149,1.196549 -5.67188,0.943359 -1.23677,-0.32604 -2.23476,0.08176 -4.82812,1.972656 -1.79851,1.31135 -3.69693,2.895552 -4.2168,3.519532 -0.51987,0.62399 -1.60413,1.32411 -2.41015,1.55664 -0.80601,0.23253 -2.43589,1.095909 -3.62305,1.917969 -2.73006,1.890503 -3.58752,1.877393 -4.86524,-0.07227 -0.89438,-1.36474 -3.98744,-4.23566 -12.55078,-11.65039 -6.61251,-5.72556 -13.48756,-10.824047 -15.80273,-11.716797 -3.2318,-1.246208 -6.39489,-1.907902 -9.44922,-1.988281 z m -0.81641,3.529296 c 3.36621,0.02163 6.79171,1.067623 10.48243,3.140626 3.92561,2.20492 12.16322,8.703713 19.16797,15.121093 1.36849,1.25374 3.09462,2.795592 3.83593,3.425781 1.85819,1.579668 3.00611,3.851068 2.59571,5.134768 -0.18875,0.59039 -2.16656,2.17575 -4.39649,3.52148 -2.22992,1.34573 -4.36763,2.89815 -4.75,3.45117 -1.15273,1.66712 -3.14809,1.17567 -5.55859,-1.37109 -3.31673,-3.50422 -6.91662,-4.84351 -12.96094,-4.82031 -6.1368,0.0236 -9.04939,1.41367 -11.48047,5.48242 -2.78279,4.65736 -3.3073,7.53038 -2.51367,13.75586 0.37772,2.96289 1.43948,7.59002 2.35937,10.28125 1.03658,3.03261 1.50926,5.22853 1.24219,5.77539 -0.7747,1.58633 -3.53326,5.50737 -7.16406,10.18555 -1.96027,2.52576 -3.56445,4.89311 -3.56445,5.25976 0,0.36664 -0.34006,1.00573 -0.75782,1.42188 -1.12277,1.11844 -2.99723,-2.72008 -5.08789,-10.42383 -0.94597,-3.48575 -2.25645,-8.04918 -2.91211,-10.14063 -0.65566,-2.09145 -1.35298,-5.94233 -1.55078,-8.55664 -0.19781,-2.6143 -0.55764,-5.89281 -0.79883,-7.28711 -0.24121,-1.3943 -0.25375,-7.40344 -0.0273,-13.35351 0.40427,-10.62448 0.44272,-10.890684 2.17383,-14.789064 2.2411,-5.04685 5.87221,-8.889711 11.5332,-12.207031 3.45919,-2.027065 6.76661,-3.029436 10.13281,-3.007813 z m 141.38477,9.107422 c 10.28229,0.05629 16.59204,0.602245 17.00195,1.609375 0.2128,0.52286 1.04056,3.505827 1.83985,6.628907 l 1.45312,5.679684 -1.77344,1.77735 c -2.13568,2.14002 -5.41762,3.6623 -14.1875,6.58398 -6.24074,2.0791 -7.17091,2.21798 -16.38476,2.44336 -5.37261,0.13143 -10.48229,0.10698 -11.35352,-0.0547 -11.73204,-2.17712 -15.03544,-3.47192 -16.27539,-6.38281 -0.49268,-1.15663 -0.82622,-4.44703 -0.95312,-9.386718 l -0.19532,-7.605469 8.1836,-0.408203 c 10.65793,-0.530944 20.19802,-0.821153 28,-0.878906 1.62541,-0.01203 3.17563,-0.0139 4.64453,-0.0059 z m 23.72266,0.34961 c 1.37946,0.0036 5.24034,0.283297 8.58007,0.623047 6.04308,0.61475 17.86379,1.641072 26.37891,2.289062 2.45701,0.18697 4.62752,0.457083 4.82227,0.601563 0.19476,0.14447 3.17421,0.556022 6.62109,0.914062 7.83714,0.81405 12.35536,1.84902 12.69336,2.90625 0.1435,0.44885 -0.47325,2.658986 -1.36914,4.91211 -2.50509,6.300182 -6.38998,9.780012 -12.4668,11.166012 -4.10567,0.93643 -22.8843,1.40301 -26.73437,0.66407 -5.76069,-1.10565 -11.81481,-3.21116 -14.16992,-4.92579 -1.81043,-1.31807 -2.73188,-2.61015 -3.86915,-5.42773 -1.59742,-3.957589 -2.99609,-9.639661 -2.99609,-12.175781 0,-1.43171 0.19832,-1.552875 2.50977,-1.546875 z m -71.79297,1.486328 c 0.66261,-0.0055 1.12066,0.03394 1.31836,0.125 0.67341,0.31017 0.81664,1.645129 0.80664,7.537109 -0.007,3.938369 0.1537,8.072289 0.35742,9.185549 0.33309,1.82029 0.13896,2.28199 -1.92383,4.58594 -4.65009,5.19374 -6.68969,6.87738 -10.51953,8.68164 -6.86481,3.23404 -20.45961,8.31826 -22.25195,8.32226 -0.9517,0.002 -2.56169,0.26601 -3.57813,0.58594 -3.05861,0.96275 -7.05854,1.30642 -8.24804,0.70898 -0.7601,-0.38175 -1.56327,-2.05299 -2.50391,-5.20898 -1.33656,-4.4843 -4.0193,-16.52329 -4.0293,-18.08203 -0.003,-0.41854 3.02578,-2.57574 6.72852,-4.79492 6.24053,-3.740193 9.66355,-5.158288 18.61133,-7.708988 5.90866,-1.684358 20.59412,-3.898678 25.23242,-3.9375 z m 68.20312,18.785158 0.77735,1.42578 c 0.4282,0.78502 1.04421,3.56733 1.36914,6.18164 0.32493,2.61431 0.93392,6.17901 1.35351,7.92187 0.41959,1.74288 0.9765,7.58929 1.23633,12.99219 l 0.47266,9.82422 -1.66797,1.78516 c -3.32966,3.56525 -7.82058,5.58234 -14.5,6.51367 -3.3975,0.47372 -6.88766,1.04907 -7.75586,1.27734 -0.86821,0.22828 -7.28297,0.47187 -14.25586,0.54297 -6.9729,0.0711 -13.62937,0.30296 -14.79102,0.51367 -1.16164,0.2107 -2.87159,0.15329 -3.80078,-0.12695 -3.37676,-1.01842 -7.52077,-3.37274 -7.80078,-4.43164 -1.16825,-4.41801 -1.90135,-38.85218 -0.84375,-39.63672 0.27021,-0.20044 2.23173,0.19491 4.35742,0.87891 4.0439,1.30123 10.24865,2.23838 19.22266,2.90429 6.04438,0.44853 14.32943,-0.44269 20.54687,-2.20898 2.32329,-0.66002 5.47541,-1.50159 7.00391,-1.87109 1.5285,-0.3695 4.19624,-1.53095 5.92773,-2.58008 l 3.14844,-1.90625 z m -151.51367,1.30273 c 1.98822,-0.015 2.81472,0.38019 5.02734,1.72852 1.73467,1.05707 3.82498,2.7713 4.64649,3.81054 1.6945,2.14366 1.81315,1.90651 -2.8125,5.69532 -1.59726,1.3083 -3.73552,3.29389 -4.75195,4.41406 -1.01644,1.12017 -3.90696,4.18314 -6.42383,6.80469 -2.51687,2.62156 -4.7283,4.76562 -4.91406,4.76562 -0.65443,0 -2.31219,-5.44664 -3.22461,-10.5957 l -0.92383,-5.20899 1.46289,-4.1289 c 1.93859,-5.47487 3.57642,-6.71483 9.44531,-7.1543 1.01553,-0.0761 1.80601,-0.12584 2.46875,-0.13086 z m 28.19922,0.20703 c 0.3025,-0.0213 0.54009,0.0241 0.69922,0.14453 0.47747,0.36151 1.15431,2.06134 1.5039,3.7793 0.3496,1.71797 1.05162,4.83629 1.5586,6.92774 0.50699,2.09144 0.97446,4.6574 1.03906,5.70312 0.0646,1.04573 0.7414,3.18532 1.50391,4.75391 1.29195,2.65773 1.80816,5.07031 1.08593,5.07031 -0.17172,0 -1.46848,-1.35599 -2.88281,-3.01172 -1.41434,-1.65573 -4.47829,-4.39538 -6.80664,-6.08984 -4.04747,-2.94554 -4.40368,-3.08203 -8.11719,-3.08203 -2.67886,0 -4.44377,0.34752 -5.6875,1.11914 -8.09503,5.02215 -19.18085,20.52446 -19.85937,27.76953 -0.16784,1.79217 -0.51872,3.75718 -0.7793,4.36719 -0.56306,1.31812 -0.57417,1.31824 -3.60547,0.0703 -4.18966,-1.7248 -4.25637,-2.10581 -1.28906,-7.32813 2.70144,-4.75439 11.66646,-15.99418 15.3125,-19.19726 1.1446,-1.00553 3.03171,-2.88032 4.19336,-4.16602 2.60357,-2.88162 7.54054,-6.92969 8.44922,-6.92969 0.37002,0 1.89011,-1.37308 3.37891,-3.05078 2.94212,-3.31542 8.1852,-6.70068 10.30273,-6.84961 z m 294.88672,0.53125 c 2.35748,0.0207 4.85741,0.28857 7.71484,0.77735 4.95289,0.84721 6.53162,1.42945 10.72071,3.95508 7.16498,4.3199 9.20099,7.4708 12.27929,19.00976 1.7277,6.47603 1.34944,18.43374 -0.81836,25.87109 -2.5447,8.73081 -12.00642,29.24127 -14.41015,31.23829 -2.5727,2.13744 -2.72859,2.16904 -3.25196,0.64453 -1.46334,-4.26258 -4.2539,-13.08261 -4.2539,-13.44336 0,-0.22891 0.9112,-2.347 2.02539,-4.70703 4.65002,-9.84943 5.76407,-16.4167 3.99609,-23.5625 -1.08188,-4.37272 -2.85583,-7.12205 -6.51758,-10.10547 -6.89626,-5.61878 -13.28762,-7.34556 -16.86523,-4.55664 -1.45515,1.13437 -1.51175,1.07103 -4.97461,-5.55274 -1.39352,-2.66554 -3.22072,-4.93451 -5.97852,-7.42578 -3.34017,-3.01739 -3.85731,-3.72536 -3.25586,-4.44726 0.3933,-0.47207 3.91851,-2.24871 7.83399,-3.94922 6.07605,-2.63886 10.56939,-3.79152 15.75586,-3.7461 z m -165.41016,1.72461 c 0.13072,0.0205 0.30304,0.11307 0.51367,0.18555 1.69251,0.58241 5.55011,1.65543 9.98243,2.77734 5.55395,1.40582 21.57479,1.88914 30.23242,0.91211 3.61796,-0.40829 6.69872,-0.59634 6.8457,-0.41992 0.14698,0.17642 -0.20066,1.26091 -0.77344,2.41211 -0.57279,1.1512 -1.87933,5.08802 -2.90234,8.74805 -1.95199,6.98365 -2.30388,8.49417 -4.34375,18.5957 -0.69259,3.42977 -1.64776,6.74918 -2.12109,7.37695 -0.47334,0.62778 -2.24711,2.02742 -3.94141,3.11133 -2.78736,1.78319 -3.49999,1.96438 -7.49414,1.89258 -2.42784,-0.0436 -5.36374,-0.30146 -6.52539,-0.57227 -2.25545,-0.5258 -8.31067,-3.17646 -10.83008,-4.74023 -0.83954,-0.52109 -2.25754,-0.94727 -3.15039,-0.94727 -2.23161,0 -2.63923,-1.55999 -3.23438,-12.35742 -0.26898,-4.88004 -0.86411,-11.86731 -1.32226,-15.52734 -1.28397,-10.25729 -1.50198,-11.5359 -0.93555,-11.44727 z m -71.89258,3.29297 c 0.21637,0.0351 0.37205,0.2137 0.52149,0.50391 0.3038,0.59002 1.08008,25.2549 1.08008,34.33398 0,4.71367 -0.0454,4.88045 -2.07618,7.60547 -2.80867,3.76892 -4.19405,4.81978 -8.2207,6.23828 -3.79696,1.33758 -15.00075,2.11203 -17.71094,1.22461 -1.66639,-0.54563 -13.31457,-14.04829 -15.78906,-18.30273 -1.41224,-2.42811 -3.07871,-10.72758 -2.3457,-11.68555 0.25023,-0.32703 3.20158,-0.79651 6.55664,-1.04297 6.65898,-0.48915 12.03122,-2.16603 19.52148,-6.0918 8.44369,-4.42546 11.67537,-6.55287 14.69532,-9.67968 1.9682,-2.03786 2.94402,-2.94694 3.52929,-3.08985 0.0878,-0.0214 0.16616,-0.0254 0.23828,-0.0137 z m 128.65625,0.91211 c 0.78191,0.14872 2.90353,1.36986 5.10938,2.96875 6.69658,4.85398 12.69033,7.87386 17.92773,9.03516 2.54004,0.56321 6.06145,1.42523 7.82617,1.91406 1.76473,0.48884 5.56737,1.06892 8.44922,1.28906 6.06627,0.46341 9.2041,1.2678 9.1875,2.35742 -0.0288,1.8912 -12.98527,16.5387 -20.58203,23.26758 -1.37737,1.22001 -4.68199,4.42745 -7.34375,7.12891 -2.66175,2.70145 -5.12848,4.87758 -5.48047,4.83398 -0.35199,-0.0436 -1.70877,-0.3163 -3.01562,-0.60547 -4.68096,-1.03574 -9.80753,-1.81283 -12.0957,-1.83203 -2.68398,-0.0226 -8.64465,-3.32487 -11.875,-6.58007 l -2.02149,-2.03711 0.84961,-3.00782 c 0.46797,-1.65442 1.41185,-4.35466 2.09766,-6 0.68582,-1.64534 1.88467,-5.55814 2.66406,-8.69531 0.7794,-3.13717 2.23841,-8.04208 3.24219,-10.89844 1.00379,-2.85637 1.82617,-5.51187 1.82617,-5.90234 0,-1.46327 2.23858,-6.88892 2.98437,-7.23242 0.0533,-0.0246 0.1383,-0.0251 0.25,-0.004 z m -9.33984,13.11328 c 0.27626,0.0586 0.10213,1.26165 -0.52539,3.56446 -0.48542,1.78131 -1.06881,3.24023 -1.29492,3.24023 -0.53967,0 0.42198,-5.09668 1.16406,-6.16992 0.3117,-0.45079 0.53068,-0.6614 0.65625,-0.63477 z m 113.25195,8.07227 c 3.74361,0 12.67232,6.54787 14.70313,10.7832 2.37596,4.95513 2.0196,11.4156 -1.04102,18.875 -1.7517,4.26926 -3.14423,5.76748 -4.09961,4.41211 -0.82943,-1.17669 -2.91322,-4.74971 -5.16211,-8.85351 -1.09079,-1.99049 -2.37214,-3.78134 -2.84765,-3.98047 -0.84523,-0.35393 -5.91459,-12.0612 -6.56055,-15.15039 -0.70667,-3.37947 1.52061,-6.08594 5.00781,-6.08594 z m -162.2539,17.11133 c 0.81854,0 0.82046,0.0179 0.75586,10.77343 -0.0262,4.35718 0.18904,9.77723 0.47851,12.04297 0.28947,2.26573 0.68667,8.20614 0.88281,13.20313 l 0.35547,9.08594 -1.53515,1.54687 c -4.77843,4.81051 -10.01551,8.12089 -15.38672,9.72461 -2.25625,0.67366 -5.29013,1.67588 -6.74219,2.22852 -1.45205,0.55262 -4.1846,1.2651 -6.07226,1.58203 -6.77354,1.13725 -8.78192,1.12658 -13.99219,-0.0742 -2.90411,-0.66931 -7.14254,-1.57128 -9.41797,-2.00391 -4.69662,-0.89296 -5.12338,-1.3812 -5.65625,-6.45703 -0.18296,-1.74288 -1.07425,-6.59055 -1.98047,-10.77344 -2.45674,-11.33982 -4.28403,-22.05671 -4.94922,-29.02929 -0.75295,-7.89256 -0.45908,-8.40995 3.41211,-6.01368 7.75787,4.80212 18.50864,6.34088 27.8418,3.98438 2.06484,-0.52134 5.26936,-0.94727 7.11914,-0.94727 1.84978,0 3.94931,-0.26969 4.66797,-0.59765 0.71866,-0.32796 3.1703,-1.05748 5.44726,-1.6211 2.27696,-0.56363 6.37052,-2.2914 9.09571,-3.83984 2.72518,-1.54844 5.27904,-2.81445 5.67578,-2.81445 z m 5.42383,1.97461 c 0.38942,-0.0322 1.08558,0.1494 1.78515,0.48828 0.93274,0.45184 4.07245,1.69786 6.97656,2.76953 4.87848,1.80026 5.86371,1.94784 12.9375,1.93164 4.21096,-0.01 8.48748,-0.12834 9.50391,-0.26367 l 1.84766,-0.2461 -0.0332,3.16797 c -0.0186,1.74287 -0.44193,5.73588 -0.93945,8.87305 -0.6878,4.337 -1.80363,24.29315 -1.92188,34.35742 -0.0126,1.07412 -2.02446,3.24043 -4.34374,4.67578 l -0.002,0 c -1.07748,0.6668 -2.73991,1.18048 -3.69531,1.14258 -2.55161,-0.1012 -15.44588,-6.90859 -18.70899,-9.87695 l -1.6621,-1.50977 -0.0195,-9.49805 c -0.0116,-5.22425 -0.2566,-10.98946 -0.54296,-12.81054 -0.76507,-4.86532 -1.88275,-22.58474 -1.45704,-23.09571 0.0503,-0.0603 0.14559,-0.0948 0.2754,-0.10546 z m -180.43165,1.19336 c 0.92215,0 8.28724,5.23908 8.5586,6.08789 0.13933,0.43577 -0.21883,2.31048 -0.79492,4.16601 -5.70943,18.38956 -7.37325,24.31238 -9.13672,32.51953 -1.15419,5.37151 -1.86592,7.61389 -2.42578,7.65039 -3.82031,0.24895 -13.18034,-0.8097 -13.94922,-1.57812 -0.99378,-0.9932 -0.9906,-1.03269 0.88867,-7.09375 0.71584,-2.30872 1.47442,-5.30348 1.68555,-6.6543 0.67955,-4.34776 6.12891,-18.71495 9.22461,-24.32226 1.05843,-1.91715 2.70522,-5.12655 3.66015,-7.13086 0.95492,-2.0043 1.98514,-3.64457 2.28906,-3.64453 z m 219.20313,5.83007 c 0.51079,-0.0165 1.16116,0.4429 2.15039,1.31641 3.51722,3.10577 7.66745,5.03103 12.84375,5.95703 6.92699,1.23918 9.11079,1.97886 9.50781,3.2207 0.39106,1.22318 -6.8037,9.58119 -11.4414,13.29102 -1.57733,1.26176 -4.09073,3.62295 -5.58399,5.24609 -1.49326,1.62314 -3.76521,3.83685 -5.05078,4.91992 -1.28557,1.08309 -3.16911,3.12446 -4.18555,4.53711 -3.16066,4.3927 -3.41939,3.64865 -2.68359,-7.75 1.35259,-20.95385 1.79914,-25.53402 2.74023,-28.16992 0.62024,-1.73722 1.0464,-2.54718 1.70313,-2.56836 z m -112.74414,2.16211 c 0.0769,0.0101 0.13235,0.0323 0.16406,0.0703 0.24987,0.29992 0.79274,7.66521 1.20703,16.36523 0.41428,8.70001 0.5943,16.01187 0.40039,16.25 -0.40277,0.49459 -2.35425,-1.42809 -8.04101,-7.91797 -2.19625,-2.50644 -6.53298,-7.21669 -9.63672,-10.46875 -3.10374,-3.25206 -5.64258,-6.31933 -5.64258,-6.81445 0,-0.63647 0.65749,-0.90007 2.24414,-0.90039 2.92169,-5.9e-4 10.89916,-2.64053 15.43555,-5.10938 1.74914,-0.95194 3.33097,-1.54522 3.86914,-1.47461 z m 234.32226,3.35742 c 0.40521,0.0127 0.99281,0.60214 1.69336,1.80079 2.17415,3.71996 6.01525,13.44056 6.29297,15.92578 l 0.29102,2.61328 -2.67774,0 c -1.57013,0 -2.85124,-0.32857 -3.09375,-0.79297 -0.41156,-0.78811 -2.36117,-11.65619 -3.01367,-16.79492 -0.23234,-1.82978 -0.0132,-2.76822 0.50781,-2.75196 z m -277.41601,16.04493 c 0.44735,-1.5e-4 0.87089,0.0202 1.26562,0.0645 3.18297,0.35676 7.60547,2.39965 7.60547,3.51172 0,0.28749 1.55808,1.89349 3.46094,3.57031 1.90285,1.67682 3.74397,3.5046 4.0918,4.06055 0.80368,1.28455 4.12041,4.40796 6.56054,6.17773 3.67791,2.66752 15.50617,17.64789 22.19141,28.10547 1.22559,1.91716 3.00371,4.69168 3.95117,6.16602 7.49415,11.66172 9.73708,22.18529 7.04492,33.05664 -1.24378,5.0226 -3.36645,14.75963 -4.29687,19.71679 -1.12769,6.00825 -8.6602,23.95172 -12.66016,30.15625 -0.88104,1.36662 -2.24153,3.62522 -3.02343,5.01954 -3.53191,6.29758 -12.58793,11.87676 -20.50977,12.63476 -2.43836,0.23331 -5.02788,0.52012 -5.75391,0.63867 -5.23524,0.85487 -19.78703,-5.13127 -27.8125,-11.4414 -4.27059,-3.3578 -11.70863,-10.98793 -12.08008,-12.39258 -0.16926,-0.64014 -0.51853,-1.16406 -0.77539,-1.16406 -1.01473,0 -4.34511,-4.90645 -7.12304,-10.49415 -2.80586,-5.64384 -5.23561,-11.94732 -6.94727,-18.02539 -0.44174,-1.56858 -1.76172,-5.41947 -2.93359,-8.55664 -4.20028,-11.24447 -4.61917,-13.15848 -5.27735,-24.11328 -0.53411,-8.88989 -0.49862,-10.98126 0.2793,-16.60351 2.28597,-16.52128 10.14531,-29.19775 23.90234,-38.55078 9.77337,-6.64465 22.12955,-11.53495 28.83985,-11.53711 z m 282.05469,8.22265 c 0.61202,-0.0292 1.43071,0.0896 2.51172,0.26172 1.41503,0.22531 2.5842,0.44413 2.5996,0.48633 0.14576,0.4001 1.70204,11.06943 2.04493,14.01953 0.24309,2.09145 0.83105,6.08446 1.30664,8.87305 0.62165,3.64502 0.82478,7.65317 0.72265,14.25976 -0.13454,8.70333 -0.19802,9.19962 -1.21875,9.375 -0.59277,0.10185 -1.22292,0.0118 -1.40039,-0.20117 -0.17747,-0.21301 -1.47497,-0.58518 -2.88281,-0.82617 l -2.56055,-0.4375 -0.37109,-10.13477 c -0.20441,-5.57361 -0.72623,-12.98495 -1.16016,-16.4707 -0.43393,-3.48574 -0.94063,-9.07948 -1.125,-12.42969 -0.29016,-5.27259 -0.30285,-6.68794 1.53321,-6.77539 z m -79.2793,1.58985 c 3.87288,0.0702 7.9142,0.52226 10.70508,1.33398 7.23221,2.10349 15.41376,5.16869 19.13476,7.16797 8.53714,4.58701 9.82053,5.36425 10.96094,6.63281 0.66281,0.73731 2.12134,2.00107 3.24219,2.8086 5.23864,3.77426 9.68926,9.71502 9.69726,12.94531 0.002,0.71605 0.37817,2.15936 0.83594,3.20508 0.45777,1.04573 1.40464,3.58178 2.10352,5.63672 0.69888,2.05493 2.00893,5.11507 2.91015,6.80078 1.81023,3.38599 3.03407,7.45667 3.69532,12.27929 0.23897,1.74287 0.70201,5.02138 1.02929,7.28711 0.88226,6.10775 0.0962,20.4406 -1.58203,28.83789 -2.09536,10.48426 -2.67848,13.04909 -3.60351,15.84571 -1.31103,3.96357 -2.49244,6.4293 -7.33399,15.30273 -8.1636,14.96199 -18.2345,24.0036 -28.41797,25.51172 -2.32329,0.34407 -7.43296,0.61933 -11.35351,0.61133 -9.03887,-0.0182 -11.97269,-0.93223 -21.92578,-6.83008 -4.1703,-2.47117 -7.78619,-4.49414 -8.03516,-4.49414 -1.59561,0 -19.26942,-17.91614 -23.32227,-23.64258 -2.73311,-3.86172 -5.0029,-9.48949 -7.71875,-19.13672 -1.70564,-6.05878 -1.99641,-7.96659 -2.22656,-14.57617 -0.19928,-5.72295 -0.0474,-8.78253 0.61328,-12.35937 0.63517,-3.43881 0.92137,-8.60818 1.03321,-18.69532 0.1517,-13.68338 0.18035,-14.00565 1.5625,-17.24804 1.74467,-4.09282 4.2205,-7.53388 6.37304,-8.85938 0.90073,-0.55466 2.95958,-2.46567 4.57617,-4.24609 3.13013,-3.44731 14.66423,-13.06055 15.66993,-13.06055 0.33008,0 1.70183,-1.14367 3.04882,-2.54297 2.96913,-3.08443 4.73584,-4.22195 8.63086,-5.55078 2.11864,-0.72279 5.82439,-1.035 9.69727,-0.96484 z M 177.7207,210.33203 c 0.1774,-0.012 0.3737,-0.008 0.58985,0.0117 0.57638,0.0523 1.29964,0.21143 2.21679,0.45117 1.74247,0.45547 4.58329,1.13649 6.3125,1.51367 4.19402,0.91483 4.51193,1.40347 3.95899,6.08594 -0.24697,2.09144 -0.8155,8.36422 -1.26172,13.94141 -0.44623,5.57719 -1.08086,11.13936 -1.41016,12.35937 -0.32929,1.22001 -0.74669,5.47721 -0.92968,9.46094 l -0.33399,7.24414 -5.54297,1.44531 c -7.71187,2.01109 -8.25452,1.97643 -8.64843,-0.5625 -0.17576,-1.13286 -0.47347,-6.7306 -0.66211,-12.43945 -0.37062,-11.21662 0.0523,-16.49649 2.21679,-27.64648 0.67668,-3.48575 1.38555,-7.39863 1.57617,-8.69336 0.3233,-2.19592 0.67621,-3.08811 1.91797,-3.17188 z m 195.68555,0.52539 c 0.0866,0.0111 0.14838,0.0378 0.18359,0.0801 0.28169,0.33813 0.26912,3.26255 -0.0312,7.18164 -0.58673,7.65547 -3.08883,31.13052 -3.45117,32.38281 -0.13496,0.46645 -0.48494,4.07411 -0.7793,8.01758 -0.61124,8.19031 -1.26026,10.29648 -3.375,10.96875 -0.82104,0.26101 -5.45296,0.7999 -10.29492,1.19727 -4.84196,0.39737 -11.59548,0.83445 -15.00781,0.9707 -7.37573,0.29449 -7.13369,0.75294 -4.55078,-8.60742 1.57584,-5.71079 1.65986,-6.52098 1.75586,-17.08594 l 0.0996,-11.0918 -4.52735,-5.39257 c -2.48996,-2.96694 -5.77417,-6.63079 -7.29882,-8.14063 -1.52466,-1.50985 -2.77149,-3.03399 -2.77149,-3.38672 0,-0.71363 1.74586,-0.48236 8.1836,1.08399 4.46866,1.08726 14.84121,0.85444 17.57812,-0.39454 0.72355,-0.33019 4.42919,-1.31603 8.23633,-2.1914 4.23498,-0.97374 8.6389,-2.46404 11.3418,-3.83789 2.29122,-1.1646 4.103,-1.83165 4.70898,-1.75391 z m 5.73047,2.1543 c 0.39975,0.0242 0.76851,0.21233 0.96289,0.58984 0.38463,0.74699 8.49676,3.8418 10.07031,3.8418 0.64289,0 1.93472,0.18388 2.86914,0.4082 1.55529,0.37336 1.6753,0.57468 1.4336,2.37696 -1.10054,8.20642 -1.6204,11.09622 -2.30469,12.81445 -0.64989,1.63185 -0.69337,3.00051 -0.25391,7.92187 0.29221,3.27217 0.54229,11.29504 0.55469,17.82813 l 0.0215,11.87695 -1.43359,0.87305 c -1.7182,1.04539 -12.08146,1.85025 -13.57812,1.05469 -0.58082,-0.30874 -1.68029,-0.58097 -2.44336,-0.60547 -2.42923,-0.078 -2.80951,-1.3474 -2.1543,-7.19922 0.32046,-2.86205 0.83687,-8.76977 1.14648,-13.12695 0.92318,-12.99188 3.05137,-35.86726 3.49414,-37.55079 0.19263,-0.73241 0.94898,-1.14385 1.61524,-1.10351 z m 168.23242,30.5957 c 1.23044,0.0425 2.38576,0.46389 2.99414,1.34375 0.718,1.03839 0.36087,24.78251 -0.48242,32.06641 -0.30267,2.61431 -0.69746,6.32112 -0.87695,8.23828 -0.1795,1.91716 -0.53966,3.98569 -0.80079,4.5957 -0.26107,0.61 -0.76439,1.08163 -1.11718,1.04883 -2.18537,-0.20289 -7.98678,-1.90324 -8.60938,-2.52344 -1.0625,-1.05841 -0.92448,-3.21466 0.53711,-8.40039 2.5861,-9.17545 3.07477,-12.52958 3.29883,-22.60547 0.12014,-5.4029 0.32438,-10.42976 0.45312,-11.16992 0.29247,-1.6814 2.5528,-2.66464 4.60352,-2.59375 z m -361.0332,22.95313 -0.15625,1.76562 c -0.11453,1.30485 0.7678,3.43498 3.37695,8.1543 2.53659,4.58806 3.79781,7.60112 4.47461,10.69531 0.51825,2.36933 1.3032,5.14646 1.74414,6.16992 1.83963,4.26993 2.07526,7.27521 0.9375,11.94532 -0.58502,2.40131 -1.33205,5.60135 -1.66016,7.11132 -0.53859,2.47853 -0.86913,2.89006 -3.39062,4.22852 -1.53613,0.81541 -3.79229,1.80578 -5.01563,2.20117 -1.22335,0.39539 -2.56195,0.87333 -2.97265,1.0625 -1.0143,0.46717 -1.55006,-1.31584 -2.86719,-9.51758 -0.60816,-3.78703 -1.41359,-7.63792 -1.78906,-8.55664 -1.66177,-4.06616 -5.16866,-24.07508 -5.29102,-30.18945 -0.0552,-2.75615 0.0632,-3.14374 0.91406,-2.96875 0.53809,0.11065 1.84512,-0.21345 2.9043,-0.7207 1.05919,-0.50725 3.4717,-1.02413 5.35938,-1.15039 l 3.43164,-0.23047 z m 150.32617,9.86328 c 1.76897,0.034 4.27872,0.32088 7.48437,0.85937 2.94138,0.4941 7.56034,1.06279 10.26563,1.26368 3.87455,0.28766 5.5555,0.7353 7.91992,2.11132 l 3.00195,1.7461 -0.082,6.33789 c -0.0747,5.68576 -1.28798,15.98973 -2.05859,17.48633 -0.46379,0.90073 -0.93628,0.67869 -2.17578,-1.01954 -0.63146,-0.86514 -1.69507,-1.57226 -2.36524,-1.57226 -0.67017,0 -3.09864,-0.76784 -5.39648,-1.70508 l -4.17774,-1.70312 -8.32617,0.70117 c -4.579,0.38565 -8.763,0.96974 -9.29687,1.29883 -3.67668,2.26644 -5.06216,1.00979 -3.34375,-3.03321 1.50908,-3.55046 2.47699,-7.22088 3.89844,-14.76953 0.68874,-3.65754 1.41423,-6.96295 1.61132,-7.3457 0.24311,-0.47215 1.27205,-0.69028 3.04102,-0.65625 z m 55.07422,1.54492 0.30859,7.60547 c 0.16999,4.18289 0.60631,9.55208 0.9707,11.93164 0.36447,2.37956 0.54739,4.46525 0.40626,4.63476 -0.14124,0.16954 -3.19162,0.37248 -6.7793,0.45118 -6.33817,0.13913 -8.73786,0.6802 -14.84961,3.3457 -3.55183,1.54904 -3.68323,1.4124 -3.28125,-3.41016 0.19611,-2.35288 0.67164,-5.70438 1.05664,-7.44726 0.385,-1.74287 0.85059,-4.59502 1.03516,-6.33789 0.49312,-4.65656 0.69654,-5.18454 2.27343,-5.91407 3.52461,-1.6306 13.89128,-4.47273 17.27539,-4.73632 l 1.58399,-0.12305 z m -126.82422,1.82617 c -1.51364,0.0223 -3.07655,0.61622 -5.5332,1.70117 -4.14755,1.83172 -5.32261,2.67924 -7.41797,5.34571 -4.2844,5.45219 -5.24738,8.25654 -5.73242,16.7207 -0.45712,7.97686 -0.14231,9.56211 2.86718,14.45117 3.82045,6.20651 5.00198,7.26715 10.46094,9.39063 4.34605,1.69057 6.60983,1.61539 11.82617,-0.39063 5.34709,-2.05631 8.85071,-7.25858 10.83203,-16.08984 1.71419,-7.64054 1.1833,-10.58014 -3.69922,-20.4961 -2.73033,-5.54507 -3.02264,-5.90621 -6.21874,-7.71875 -3.57465,-2.0272 -5.43866,-2.94275 -7.38477,-2.91406 z M 537.375,293.08008 c 0.12764,0.005 0.24852,0.0246 0.35742,0.0586 0.43561,0.13594 2.4554,0.60632 4.48828,1.04688 4.32984,0.93836 5.22,1.57289 4.74805,3.38476 -0.18793,0.7215 -0.53877,2.31124 -0.7793,3.53125 -2.12306,10.76896 -5.46803,24.4975 -6.91015,28.36133 -1.02797,2.75425 -2.01714,3.35191 -3.0586,1.8457 -0.3225,-0.46642 -2.07399,-1.35723 -3.89258,-1.97851 -7.92106,-2.70611 -7.74935,-2.56834 -6.54687,-5.25391 1.01742,-2.27224 5.57394,-15.59072 6.45117,-18.85547 1.6152,-6.01118 3.45711,-11.38563 4.0586,-11.83984 0.26776,-0.20221 0.70107,-0.31474 1.08398,-0.30078 z m -64.34961,6.9707 c -1.66472,0.0534 -3.6423,0.59412 -7.08594,1.6582 -3.0718,0.94918 -6.67338,5.56477 -9.52929,12.2129 -2.49838,5.81583 -2.68616,8.80043 -0.84961,13.48046 1.40667,3.58453 4.85982,8.52534 6.73437,9.63477 3.49375,2.06773 6.6947,3.65989 8.11524,4.03711 3.04273,0.80798 8.19719,0.61407 9.78125,-0.36914 2.58073,-1.60183 5.4067,-4.06991 6.17968,-5.39453 0.40254,-0.6898 1.16456,-1.25391 1.69336,-1.25391 0.5288,0 1.21144,-0.36194 1.51758,-0.80469 0.56285,-0.81401 1.53897,-13.84767 1.2832,-17.13867 -0.42709,-5.49526 -6.12763,-12.17071 -12.63671,-14.79883 -2.18783,-0.88336 -3.53841,-1.3171 -5.20313,-1.26367 z m -272.43164,5.78906 c 0.15887,0.0164 0.33635,0.14191 0.5625,0.36719 1.08473,1.08054 0.93156,3.60988 -0.26563,4.37891 -0.56173,0.36084 -1.15601,0.65625 -1.32031,0.65625 -0.51389,0 -0.32451,-3.19161 0.26758,-4.51953 0.28192,-0.63226 0.49108,-0.91021 0.75586,-0.88282 z m 151.17383,2.26172 c 2.80838,0.0207 4.04123,0.2879 5.68945,0.91016 3.43927,1.29844 4.97266,2.84168 4.97266,5.0039 0,2.20831 -0.89142,2.69836 -5.125,2.81446 -4.40456,0.1208 -10.73894,2.04274 -13.9961,4.24609 -2.11777,1.43259 -4.61675,4.52801 -7.95507,9.85742 -0.89226,1.42444 -1.56989,3.53806 -1.82813,5.70313 l -0.41016,3.4414 -3.16406,0.37305 c -1.73964,0.20553 -5.01181,1.13322 -7.27148,2.06055 -2.25965,0.92734 -4.15906,1.66407 -4.22266,1.63867 -0.54252,-0.2169 -8.49746,-5.04728 -8.6875,-5.27539 -0.13597,-0.1632 0.44766,-1.38654 1.29688,-2.7168 5.20276,-8.1499 9.56996,-15.91017 11.42773,-20.31054 1.0692,-2.53254 1.78524,-3.39015 3.53906,-4.23243 4.33963,-2.08414 8.83108,-2.88587 18.54883,-3.30859 3.24952,-0.14135 5.50052,-0.21751 7.18555,-0.20508 z m -89.06641,0.0664 c 1.9039,-0.0681 3.97485,0.91675 5.70508,2.79297 1.10691,1.20031 2.26745,2.18164 2.57813,2.18164 2.10102,0 0.34343,6.92816 -2.24415,8.84765 -1.14625,0.85032 -2.62507,1.28574 -4.32031,1.27344 -4.6945,-0.0341 -9.89463,-5.68199 -8.21094,-8.91797 0.33945,-0.65241 0.61719,-1.86768 0.61719,-2.70117 0,-1.62392 1.23173,-3.27392 2.01172,-2.69531 0.26058,0.1933 1.17685,0.0334 2.03516,-0.35547 0.57892,-0.26228 1.19349,-0.40309 1.82812,-0.42578 z m 120.04492,0.0781 c 1.38375,-0.0109 2.95124,0.0859 4.73438,0.28321 7.37853,0.8163 8.17166,1.4834 9.33984,7.84765 1.17277,6.38923 1.26399,6.61914 4.67383,11.66016 1.65047,2.44002 3.22008,4.90763 3.48633,5.48437 0.26624,0.57674 2.97802,4.24973 6.02734,8.16211 3.04932,3.91238 5.61277,7.3246 5.69727,7.58399 0.0845,0.2594 -0.38939,0.64741 -1.05469,0.86133 -2.48881,0.80021 -4.46145,0.34438 -7.2832,-1.68555 -2.27644,-1.63764 -9.94287,-5.05252 -14.58985,-6.49805 -0.54523,-0.1696 -1.48107,-2.00249 -5.32422,-10.42383 -0.71583,-1.56858 -1.67089,-3.34781 -2.12304,-3.95507 -1.63928,-2.20164 -11.86051,-7.34501 -16.58594,-8.34571 -1.05986,-0.22444 -2.20695,-0.8122 -2.54883,-1.30664 -0.92328,-1.3353 -0.45209,-3.53722 1.04297,-4.87109 1.13307,-1.01091 1.55667,-1.06947 2.99414,-0.41797 1.56234,0.7081 1.77631,0.62826 3.18946,-1.1875 1.67808,-2.15622 4.17297,-3.15864 8.32421,-3.19141 z m -177.29101,6.79883 c 0.52523,0 2.70957,2.20871 4.85351,4.91016 9.08544,11.44804 11.06299,13.74488 14.57227,16.91601 2.03288,1.837 4.46828,3.81619 5.41211,4.39844 0.94384,0.58226 1.7168,1.29942 1.7168,1.59375 0,0.5819 -2.96479,3.79829 -7.11915,7.72266 -4.02132,3.7987 -4.14639,3.70366 -4.96874,-3.75586 -0.28227,-2.56038 -0.85756,-5.12634 -1.2793,-5.70313 -0.42175,-0.57678 -1.3014,-2.33181 -1.95508,-3.90039 -2.04654,-4.91088 -9.26179,-14.52931 -13.32031,-17.75781 -1.08705,-0.86474 -1.97652,-1.77877 -1.97852,-2.03125 -0.005,-0.66053 2.93859,-2.39258 4.06641,-2.39258 z m -8.8125,5.39063 2.76758,1.85351 c 6.26278,4.19757 10.76259,9.50024 13.61718,16.04492 2.03842,4.67344 2.32632,5.88425 2.80274,11.82813 0.62817,7.83713 0.76165,7.523 -4.91016,11.55859 -2.1949,1.56171 -5.29922,3.81748 -6.89648,5.01368 -1.59726,1.19619 -3.26281,2.17673 -3.70117,2.17773 -1.02288,0.003 -1.89302,-1.70276 -3.52344,-6.90234 -0.72178,-2.30182 -1.50086,-4.47174 -1.73047,-4.82032 -0.22961,-0.34857 -1.30389,-3.05665 -2.38672,-6.01953 -5.80277,-15.87773 -7.13867,-19.65754 -7.13867,-20.19922 0,-1.63808 4.04506,-6.13469 7.4043,-8.23047 l 3.69531,-2.30468 z m 278.1914,4.23828 c 2.297,0.11706 4.10137,1.72019 5.14454,4.71679 1.01484,2.91533 0.91936,3.86081 -0.56836,5.64649 -1.16269,1.39555 -1.71949,1.54997 -5.41211,1.50977 -4.0205,-0.0437 -7.9852,-1.41168 -8.82617,-3.04493 -0.65518,-1.27242 2.45392,-5.83221 5.05468,-7.41406 1.67499,-1.01878 3.22923,-1.4843 4.60742,-1.41406 z m 50.03516,6.43359 c 1.09674,-0.0728 2.55504,0.61539 4.87109,1.91992 2.24372,1.26379 4.33779,2.29688 4.65235,2.29688 1.40746,0 1.83854,1.77446 0.93945,3.86133 -0.48578,1.12752 -1.30269,3.50018 -1.81641,5.27343 -0.85135,2.93892 -6.97106,18.75855 -8.7246,22.55469 -0.40253,0.87144 -1.57292,3.65252 -2.60157,6.17969 -2.27009,5.5771 -3.00795,5.76321 -6.1875,1.56836 -2.00474,-2.64488 -6.5661,-6.76254 -9.63476,-8.69922 -2.15446,-1.3597 -2.18916,-2.5138 -0.18946,-6.10742 1.04045,-1.86977 3.71577,-5.81225 5.94532,-8.76172 4.33712,-5.73759 6.49069,-9.39892 9.25,-15.72266 1.27382,-2.91932 2.08599,-4.26973 3.49609,-4.36328 z m -217.85156,12.78906 c 1.20812,-0.006 2.31329,0.42986 3.63281,1.23243 3.42706,2.08443 3.69642,2.7584 1.83399,4.59179 -4.07225,4.00869 -4.59505,4.94049 -6.51368,11.58789 -0.35213,1.22001 -0.77427,4.5352 -0.9375,7.36524 -0.37411,6.48623 0.63359,10.05691 3.78711,13.42383 2.78037,2.96852 3.16405,3.76421 2.37305,4.9082 -0.35098,0.50759 -0.78651,0.92092 -0.96875,0.91992 -0.58802,-0.004 -3.64129,-2.40936 -3.83789,-3.02344 -0.33864,-1.05774 -7.38622,-6.50871 -12.03516,-9.30859 -2.48817,-1.49853 -5.94894,-3.05503 -7.6914,-3.45898 -1.74247,-0.40395 -3.70401,-0.87186 -4.35743,-1.03907 -0.65343,-0.1672 -1.1875,-0.75974 -1.1875,-1.3164 0,-1.09947 2.60665,-5.66825 6.09571,-10.6875 1.21153,-1.74287 2.36229,-3.78054 2.55859,-4.52735 0.19629,-0.7468 1.11135,-1.73309 2.0332,-2.1914 0.92186,-0.45832 4.00651,-2.45016 6.85547,-4.42578 4.04717,-2.80653 6.34584,-4.04097 8.35938,-4.05079 z m 24.03711,0.30079 c 2.50738,0 3.09014,0.2425 4.21093,1.74414 5.56606,7.45723 9.4075,9.51802 22.14844,11.89062 15.3079,2.85062 15.17567,2.8375 19.80078,2.16406 9.40704,-1.36973 12.38063,-3.1649 14.19727,-8.56445 1.88155,-5.59245 1.82375,-5.55439 6.55664,-4.13476 5.60308,1.68062 11.55792,5.98973 15.88867,11.5 4.93811,6.28306 5.33455,7.40064 4.59375,12.92382 -1.15314,8.59741 -5.48501,16.17826 -10.96484,19.18946 -3.5498,1.95064 -10.00536,2.35782 -18.39063,1.16015 -6.39237,-0.91301 -8.86577,-1.5324 -13.99023,-3.5039 -4.90813,-1.88827 -18.03831,-2.46199 -24.29102,-1.0625 -9.44478,2.11396 -15.3764,2.59423 -22.18164,1.79492 -6.45539,-0.75821 -8.30561,-1.46675 -12.24414,-4.69141 -6.59834,-5.40237 -7.97298,-7.76995 -7.95898,-13.69726 0.0102,-4.32067 1.39072,-10.48326 3.16601,-14.12891 1.1626,-2.38747 6.39492,-7.19399 9.91407,-9.10742 5.7008,-3.09965 6.73482,-3.47656 9.54492,-3.47656 z m -92.18164,2.53515 c 0.27086,0 1.27287,0.39809 2.22656,0.88477 7.74844,3.95416 11.03834,5.4938 13.08594,6.12304 5.19957,1.59786 8.86504,4.17966 12.71679,8.95704 2.05475,2.54853 4.18975,5.77367 4.74414,7.16796 0.55438,1.3943 1.29359,3.0128 1.64454,3.59571 0.53545,0.88935 0.27858,1.60211 -1.60547,4.43554 -1.23486,1.85711 -3.17904,4.85743 -4.32032,6.66602 -1.14129,1.80859 -2.96976,4.08835 -4.0625,5.06836 -1.09273,0.98 -2.79644,2.70893 -3.78515,3.8418 -0.98872,1.13286 -2.00674,2.06054 -2.26172,2.06054 -0.51266,0 -0.55486,-0.1237 -1.71484,-4.99609 -1.2913,-5.42398 -8.74295,-16.72652 -12.53321,-19.00977 -1.25764,-0.7576 -4.3977,-2.90826 -6.97851,-4.77929 -2.58081,-1.87103 -5.84743,-4.05172 -7.25977,-4.84571 -1.41234,-0.79399 -2.56836,-1.76829 -2.56836,-2.16601 0,-0.39772 0.77297,-1.40894 1.7168,-2.2461 0.94384,-0.83715 2.4276,-2.29816 3.29883,-3.24609 4.11505,-4.47729 7.20838,-7.51172 7.65625,-7.51172 z m 180.68359,5.52149 c 0.87292,-0.0992 1.99925,0.84518 4.99414,3.36328 1.62623,1.36734 4.05706,3.1065 5.40039,3.86523 1.34332,0.75874 6.00516,3.42849 10.36133,5.93164 4.35616,2.50314 9.63583,5.20289 11.73242,6 3.19851,1.21606 3.98513,1.80071 4.88477,3.63086 1.75704,3.57439 1.75336,3.57659 -4.82813,4.6582 -9.42233,1.54848 -20.69442,7.09156 -26.67187,13.11329 -2.08774,2.10321 -4.35445,4.60209 -5.03711,5.55468 -1.01077,1.41042 -1.35097,1.5729 -1.82617,0.87305 -1.06919,-1.57466 -3.86133,-7.55947 -3.86133,-8.27539 0,-0.38819 0.95244,-2.18791 2.11719,-4 3.40638,-5.29961 6.08664,-16.6164 5.07812,-21.43945 -0.1847,-0.88327 -1.52359,-3.38261 -2.97461,-5.55274 -1.45103,-2.17012 -2.63672,-4.15751 -2.63672,-4.41797 0,-0.26046 0.72882,-1.21211 1.6211,-2.11328 0.69045,-0.69734 1.12273,-1.13191 1.64648,-1.1914 z m -137.8457,4.23828 c 0.8054,0.0921 0.54276,1.51829 -0.78711,4.04687 -0.68641,1.30511 -1.87985,3.86627 -2.65039,5.69141 -0.77054,1.82514 -1.74665,3.31836 -2.16992,3.31836 -0.42326,0 -1.16474,-0.91829 -1.64844,-2.04102 -0.48372,-1.12274 -2.17537,-3.67421 -3.75977,-5.66797 -1.5844,-1.99376 -2.73496,-3.90759 -2.55664,-4.2539 0.18696,-0.3631 2.72252,-0.59232 5.99024,-0.54102 3.11659,0.0489 6.20008,-0.13078 6.85351,-0.40039 0.29981,-0.1237 0.54266,-0.17359 0.72852,-0.15234 z m -60.73047,7.54883 c 0.30062,0.005 0.6243,0.052 0.99414,0.13476 6.08122,1.36119 17.46526,8.75911 20.99609,13.64453 3.16946,4.38543 8.45649,13.40674 9.28125,15.83594 0.40977,1.20691 0.90279,3.25213 1.09571,4.54492 0.31454,2.10774 0.17371,2.53288 -1.35743,4.11914 -0.93913,0.97294 -2.19457,2.34506 -2.79101,3.04883 -1.5464,1.8247 -4.49985,4.37936 -6.4707,5.59766 -0.92942,0.57452 -1.76066,1.04015 -1.84766,1.03515 -0.65726,-0.0403 -1.54198,-1.42295 -2.74805,-4.29297 -0.77873,-1.85308 -1.9764,-3.66137 -2.67773,-4.04492 -0.6976,-0.3815 -2.52965,-2.83456 -4.07227,-5.45117 -3.05654,-5.18451 -8.05102,-10.9963 -11.02539,-12.83203 -1.03586,-0.63932 -2.19016,-1.60821 -2.5664,-2.15234 -0.37623,-0.54413 -3.39019,-2.6234 -6.69727,-4.6211 -6.32908,-3.82319 -7.51169,-5.44966 -4.56055,-6.26953 1.92401,-0.53452 9.41874,-4.99678 11.74414,-6.99219 1.10628,-0.94927 1.80127,-1.31906 2.70313,-1.30468 z m 283.30469,6.22656 c 1.15988,-0.0519 3.34434,2.16549 8.66406,8.10742 2.31784,2.58896 4.03105,4.88247 3.80664,5.09766 -0.22441,0.21519 -1.8337,0.90811 -3.57617,1.53906 -1.74247,0.63094 -3.88073,1.59142 -4.75196,2.13476 -1.88693,1.17677 -6.53978,5.36364 -7.65625,6.88868 -5.72189,7.81576 -7.14084,10.07094 -10.00976,15.91601 -0.68513,1.39587 -1.25836,2.45192 -1.73047,3.22071 -0.002,0.018 -0.003,0.0298 -0.006,0.0508 -0.0192,0.15327 0.0249,0.1355 -0.0352,0.15429 -0.004,0.17573 0.002,0.15239 -0.0156,0.29297 -0.004,0.0304 -0.008,0.0618 -0.0137,0.0918 -0.001,0.005 -0.008,0.008 -0.008,0.0137 -0.0315,0.43763 0.0179,0.13426 -0.0586,0.51953 -0.0481,0.16582 -0.10055,0.35426 -0.16992,0.50781 -0.031,0.0687 -0.0617,0.22073 -0.11133,0.21875 -0.0108,0.0298 -0.0585,0.1168 -0.0859,0.16211 -0.067,0.18611 -0.0363,0.13818 -0.11132,0.28321 -0.10818,0.22722 0.14484,-0.31038 -0.13868,0.35742 -0.0186,0.0437 -0.0467,0.0837 -0.0703,0.125 -0.0134,0.0235 -0.0217,0.0513 -0.041,0.0703 -0.01,0.01 0.0173,-0.0536 0.0117,-0.041 -0.0271,0.0601 -0.0511,0.12263 -0.0762,0.18359 -0.0477,0.0682 -0.0951,0.1367 -0.14258,0.20508 -0.004,0.005 -0.004,0.004 -0.008,0.01 -0.005,0.007 -0.0106,0.0142 -0.0156,0.0215 9.3e-4,-10e-4 0.008,-0.008 0.0137,-0.0156 -0.007,0.0122 -0.014,0.0295 -0.0215,0.0469 -0.028,0.10996 -0.0368,0.1832 -0.0859,0.33398 -0.22716,0.69715 -0.56059,2.24221 -0.74024,3.4336 -0.30928,2.05102 -1.02849,2.86989 -1.56445,2.10546 -0.0403,-0.009 -0.0704,-0.0128 -0.11914,-0.0273 -0.20927,-0.0622 -0.41965,-0.12527 -0.62891,-0.1875 -0.057,-0.0471 -0.11485,-0.0913 -0.16992,-0.14062 -0.48532,-0.43541 0.1961,0.14955 -0.28711,-0.27149 -0.1017,-0.0886 -0.17697,-0.14585 -0.25391,-0.2168 -0.12326,-0.0522 -0.26375,-0.11179 -0.1582,-0.084 -0.10781,-0.13696 -0.21401,-0.2755 -0.32226,-0.41211 -0.0178,-0.0187 -0.0303,-0.0348 -0.0469,-0.0527 -7.2e-4,-0.002 -0.003,-0.007 -0.004,-0.01 -0.005,-0.006 -0.009,-0.0118 -0.0137,-0.0176 -0.006,-0.007 0.007,0.0133 0.0137,0.0234 -0.1108,-0.11992 -0.20043,-0.23507 -0.28321,-0.37695 -0.0386,-0.0329 -0.0781,-0.0651 -0.11523,-0.0996 -0.0192,-0.0178 -0.0323,-0.0408 -0.0469,-0.0625 -0.0751,-0.11186 -0.16157,-0.21779 -0.22265,-0.33789 -0.0398,-0.0782 -0.0532,-0.16782 -0.0781,-0.25196 -0.003,-0.0113 0.008,0.0224 0.0137,0.0332 l -0.006,-0.0234 c -0.0294,-0.0552 -0.0563,-0.11099 -0.082,-0.16797 -0.0105,-0.0232 -0.0211,-0.0477 -0.0273,-0.0723 -0.16314,-0.18172 -0.23707,-0.26562 -0.36914,-0.4668 -0.0178,-0.0122 -0.0421,-0.0228 -0.0352,-0.0391 0.0102,-0.0241 0.0377,0.0369 0.0586,0.0527 0.36263,0.27446 -0.1271,-0.17612 -0.27344,-0.32813 -0.0234,-0.0902 0.0125,0.0404 -0.10547,-0.23242 -0.009,-0.02 -0.0302,-0.0469 -0.0215,-0.0625 -0.005,-0.006 -0.013,-0.0164 -0.0176,-0.0215 -0.24143,-0.2701 -0.20469,-0.28287 -0.29883,-0.58399 0.006,0.0335 0.0168,0.0987 0.0176,0.0645 -0.008,-0.0247 -0.009,-0.0351 -0.0254,-0.0742 -0.002,-0.004 -0.004,-0.007 -0.006,-0.01 -0.0513,-0.0891 -0.11213,-0.26268 -0.14063,-0.35156 -0.0198,-0.0618 -0.0349,-0.12515 -0.0527,-0.1875 -0.0923,-0.32301 -0.0857,-0.58483 -0.041,-0.8125 -0.19279,-0.26282 -0.38692,-0.54846 -0.56836,-0.85547 -4.6584,-7.88231 -5.90653,-10.11288 -7.875,-14.0664 -4.07213,-8.17856 -5.50463,-11.81074 -5.33789,-13.54102 0.16285,-1.68989 0.39316,-1.92027 8.61133,-8.61719 1.6627,-1.35493 3.6166,-2.32015 5.2793,-2.60742 1.45206,-0.25087 4.06613,-1.33652 5.80859,-2.41406 2.8619,-1.76979 3.6019,-1.95262 7.65625,-1.87696 2.4685,0.0461 5.20103,0.1814 6.07227,0.30079 1.23385,0.16907 1.69958,-0.0983 2.10546,-1.20899 0.30147,-0.82478 0.61731,-1.31627 1.14454,-1.33984 z m -307.11328,4.35156 c 0.20527,0 0.40766,0.31545 0.81054,0.94922 0.8453,1.32973 3.46235,6.28882 7.89063,14.95117 3.31158,6.47791 6.5251,11.72633 9.8789,16.13086 1.43447,1.88388 2.4663,3.70051 2.29297,4.03711 -0.17332,0.33662 -1.67611,1.54372 -3.33984,2.68164 -4.8261,3.30084 -8.36508,7.42323 -15.69922,18.28906 -7.53232,11.15942 -16.03739,19.87798 -24.23633,24.84571 -1.73112,1.04888 -3.99509,2.56856 -5.03125,3.37695 -1.03615,0.80839 -2.95291,1.79129 -4.25976,2.18359 -1.30685,0.3923 -3.27227,1.12575 -4.36719,1.63086 -1.93826,0.89418 -9.91849,1.30618 -10.55274,0.54492 -0.17099,-0.20524 -1.33884,-0.64723 -2.5957,-0.98242 -5.09624,-1.35908 -12.78327,-8.85069 -15.46289,-15.07031 -0.52946,-1.22892 -1.045,-4.23973 -1.20508,-7.04297 -0.27604,-4.83392 -0.25063,-4.96349 2.03516,-10.14062 5.11821,-11.59236 14.20697,-19.48297 31.35742,-27.22657 8.81866,-3.98172 13.75727,-7.05959 19.27148,-12.00781 8.08342,-7.25374 8.82922,-8.09978 10.22071,-11.60156 0.72822,-1.83262 1.7001,-3.90246 2.16015,-4.59961 0.41824,-0.63377 0.62676,-0.94922 0.83204,-0.94922 z m 271.50585,0.0293 5.42969,0.0293 -2.64062,1.64063 c -1.45206,0.90252 -3.31191,2.31455 -4.13282,3.13867 -2.05396,2.062 -2.8464,1.88663 -3.79687,-0.84375 -1.30364,-3.74495 -0.97559,-3.99814 5.14062,-3.96484 z m -191.58593,2.11523 6.10351,0.24414 c 5.62758,0.22499 6.40907,0.41469 10.00586,2.42383 2.14568,1.19856 5.11515,3.2174 6.59961,4.48633 3.01732,2.57923 9.29883,10.07484 9.29883,11.0957 0,0.36333 -0.90307,1.98265 -2.00781,3.59961 -1.10474,1.61696 -2.94585,4.85802 -4.0918,7.20117 -1.14594,2.34314 -2.32092,4.36584 -2.61133,4.49414 -0.29041,0.12831 -2.0744,-1.64619 -3.96289,-3.94336 -3.9106,-4.75689 -6.74596,-6.9579 -12.55664,-9.74414 -3.75211,-1.79914 -4.6382,-1.96561 -11.20312,-2.11132 -3.92055,-0.087 -7.209,-0.17768 -7.3086,-0.20118 -0.21675,-0.051 3.20146,-4.94025 6.23438,-8.91601 1.1966,-1.56859 2.92393,-4.15176 3.83789,-5.74024 l 1.66211,-2.88867 z m -70.89063,4.28906 c 2.67194,-0.21744 13.80784,8.93311 20.41992,17.23047 3.5417,4.4444 6.44336,10.90708 6.44336,14.34766 0,1.05338 -0.17672,1.89504 -0.39453,1.86914 -0.96313,-0.11421 -7.36169,-3.94616 -8.3164,-4.98047 -0.58082,-0.62926 -1.66602,-1.31708 -2.41016,-1.52734 -0.86243,-0.24369 -2.70738,-2.39916 -5.08984,-5.94531 -4.03744,-6.00953 -11.23719,-19.00982 -11.24219,-20.29883 -0.002,-0.44325 0.20814,-0.66425 0.58984,-0.69532 z m 247.83008,4.48047 c 0.577,0.008 1.15266,0.0308 1.72852,0.0684 2.97824,0.19435 5.68353,0.55292 6.00976,0.79492 0.32622,0.242 1.48725,2.75261 2.58203,5.58008 1.09477,2.82746 2.5699,6.15309 3.27735,7.39063 0.70744,1.23754 2.06112,4.08969 3.00781,6.33789 0.9467,2.24821 2.35177,5.08319 3.12305,6.30078 2.48109,3.91682 4.28687,7.27586 4.29687,7.99023 0.007,0.48017 -2.81249,0.68426 -9.09766,0.66016 -12.1637,-0.0467 -19.48583,1.24179 -26.52734,4.66602 -2.90032,1.41041 -6.10672,3.22546 -7.12695,4.03515 -1.02022,0.80969 -2.6049,1.93682 -3.51953,2.50391 -2.05101,1.27168 -2.42819,0.81896 -3.35352,-4.00586 -0.36768,-1.91716 -0.95969,-4.48312 -1.31445,-5.70313 -0.35476,-1.22001 -0.94034,-3.35961 -1.30078,-4.7539 -0.36044,-1.3943 -1.46316,-4.4464 -2.45118,-6.78125 -0.98802,-2.33485 -1.79687,-4.87319 -1.79687,-5.64063 0,-1.52182 4.24321,-6.73162 8.73437,-10.72461 6.36931,-5.66279 15.07351,-8.83928 23.72852,-8.71875 z m 60.41211,3.13282 c 0.19823,-0.008 0.33634,0.0216 0.39648,0.0937 1.07332,1.28829 -7.60337,14.93731 -13.44922,21.15625 -2.22774,2.36992 -4.73023,5.10338 -5.56054,6.07421 -0.8303,0.97081 -2.37427,2.2399 -3.43164,2.82032 -1.05736,0.58042 -2.10055,1.16621 -2.31836,1.30078 -0.21781,0.13457 -0.39649,0.0714 -0.39649,-0.14063 0,-0.6895 3.77282,-9.40132 4.9375,-11.40039 2.49046,-4.27465 10.08917,-14.42253 11.41602,-15.24609 0.77638,-0.48189 1.70678,-1.30216 2.06641,-1.82227 0.65126,-0.94188 4.95224,-2.7785 6.33984,-2.83593 z m -154.30078,1.79687 4.01758,0 -0.35938,4.27734 c -0.19823,2.35288 -0.57331,5.27609 -0.83203,6.4961 -0.25873,1.22001 -0.74759,4.35834 -1.08789,6.97265 -0.66501,5.10874 -1.6456,10.03268 -2.55469,12.83399 -0.74149,2.28484 -2.26292,2.26757 -5.93164,-0.0684 -3.01591,-1.92029 -4.32708,-4.16016 -4.89453,-8.35547 -0.16688,-1.23373 -1.14536,-5.08267 -2.17383,-8.55469 -3.00225,-10.13537 -2.97183,-9.99275 -2.24219,-10.83789 0.87739,-1.01627 11.03055,-2.76367 16.0586,-2.76367 z m -42.49805,0.10352 c 0.46079,-0.024 0.91102,0.15969 1.4043,0.47656 0.55695,0.35777 4.18973,1.24242 8.07226,1.9668 3.88253,0.72438 7.20164,1.5174 7.375,1.76171 0.44548,0.62782 -0.30762,7.71786 -1.49414,14.07618 -0.98642,5.28607 -1.92382,7.75426 -4.02734,10.60937 -1.41297,1.91783 -1.93252,1.81204 -4.0625,-0.83203 -1.0008,-1.24237 -3.07625,-3.12419 -4.61328,-4.18164 -2.60961,-1.79537 -3.17901,-1.92943 -8.58008,-2.01953 -6.32619,-0.10552 -6.4449,-0.19682 -4.80664,-3.70313 6.55926,-14.03862 8.73567,-18.05017 10.73242,-18.15429 z m 52.13672,0.63867 c 0.21004,0.0105 0.44395,0.051 0.70898,0.10547 2.67185,0.54896 11.35643,3.46643 12.49415,4.19726 0.56387,0.36222 1.85855,0.65821 2.87695,0.65821 1.01839,0 2.00157,0.2931 2.18555,0.65039 0.61752,1.19931 -1.37615,9.76931 -3.16602,13.60937 -2.63965,5.66319 -6.49196,9.38763 -12.11328,11.70899 -3.77327,1.5582 -8.64278,1.73454 -9.0918,0.33007 -0.34288,-1.0725 -0.0998,-3.18895 1.05469,-9.18554 0.43619,-2.26573 1.30528,-7.51769 1.93164,-11.66992 1.36372,-9.0406 1.64883,-10.47795 3.11914,-10.4043 z m 148.02539,1.79297 c 0.22879,0 0.62202,0.65255 0.875,1.45117 0.25296,0.79862 0.86677,1.85697 1.36328,2.35156 0.49649,0.49459 1.48257,2.47905 2.19141,4.41016 0.70884,1.9311 1.944,4.51046 2.74414,5.73047 0.80014,1.22001 2.02126,3.35765 2.71289,4.75195 1.09001,2.19741 11.09355,15.57529 14.42578,19.29102 0.63731,0.71063 3.77228,3.73931 6.9668,6.73046 6.69939,6.27287 15.24766,17.04305 16.82226,21.19532 0.8737,2.30402 1.08547,4.19216 1.10547,9.82422 0.0217,6.21144 -0.11586,7.28121 -1.25976,9.82226 -3.6249,8.05209 -6.17633,10.62072 -12.26563,12.34375 -4.04656,1.14503 -6.35881,1.15049 -9.1543,0.0176 -1.16165,-0.47077 -3.42031,-1.29861 -5.01757,-1.83985 -3.61363,-1.22426 -12.71004,-8.02366 -14.6543,-10.95312 -0.79731,-1.20132 -2.15444,-3.09276 -3.01563,-4.20312 -0.86119,-1.11044 -2.73774,-3.73083 -4.16992,-5.82227 -1.43219,-2.09145 -2.89852,-4.09589 -3.25976,-4.45508 -1.42888,-1.42079 -4.6004,-6.92952 -6.65821,-11.56445 -1.19234,-2.68557 -3.25544,-6.57805 -4.58398,-8.65039 -2.99155,-4.66637 -11.14886,-14.25546 -13.33984,-15.68164 l -1.62696,-1.0586 1.49805,-1.0957 c 7.55699,-5.526 18.15324,-17.27967 24.30078,-26.95508 1.97101,-3.10212 3.7712,-5.64062 4,-5.64062 z m -106.70898,1.02539 c 1.23008,0.0296 1.60182,1.53251 3.13281,5.91601 2.54344,7.28234 4.26003,14.66167 3.625,15.58008 -0.32417,0.46882 -2.47045,0.88738 -5.4082,1.05469 -3.77416,0.21494 -5.64363,0.6721 -8.30274,2.02539 -5.2972,2.69589 -5.02784,2.7129 -6.55078,-0.40625 -0.75385,-1.54399 -1.36914,-3.11072 -1.36914,-3.48242 0,-0.3717 -0.59275,-2.77148 -1.31641,-5.33203 -0.72365,-2.56055 -1.46521,-6.39523 -1.64843,-8.52149 l -0.33399,-3.86719 5.21289,-0.006 c 4.28352,-0.006 5.95714,-0.31368 9.38281,-1.72657 1.79159,-0.73892 2.83812,-1.25211 3.57618,-1.23437 z m -71.90039,0.55859 c 0.8379,0 3.78889,8.16612 5.03906,13.94336 0.37715,1.74288 1.07555,4.87925 1.55078,6.9707 0.47522,2.09145 0.99591,4.44422 1.1582,5.22852 0.16229,0.78429 0.0895,1.38423 -0.16211,1.33203 -0.25166,-0.0522 -1.16978,-0.21522 -2.04101,-0.36133 -0.87123,-0.14612 -2.55316,-0.65309 -3.73633,-1.12695 -1.22631,-0.49113 -3.0875,-0.70982 -4.33008,-0.50977 -1.19888,0.19306 -2.54437,0.18192 -2.99023,-0.0234 -0.70862,-0.32638 -0.68437,-0.63454 0.19726,-2.45508 1.22574,-2.53107 2.35632,-7.45217 3.17188,-13.8086 1.02859,-8.01673 1.30148,-9.18945 2.14258,-9.18945 z m -70.83985,4.26367 c 2.21773,0.0208 4.22149,0.43048 7.96485,1.49219 3.36252,0.9537 6.99479,2.25831 8.07226,2.90039 1.07748,0.64209 2.29675,1.16797 2.70899,1.16797 1.11989,0 6.7699,5.46625 7.9375,7.67969 0.55994,1.06148 1.59099,2.19138 2.29296,2.51172 1.57556,0.719 1.32575,2.16595 -1.08593,6.28711 -1.58675,2.7115 -1.66797,3.14497 -1.66797,8.8164 0,3.44188 -0.22464,6.03747 -0.5293,6.13477 -0.59702,0.1907 -1.43808,-0.21367 -7.39062,-3.53516 -2.32519,-1.29745 -7.07277,-3.14258 -10.56055,-4.10547 -3.48493,-0.9621 -7.16911,-2.02386 -8.18555,-2.35937 -1.01644,-0.3355 -3.86745,-1.13378 -6.33594,-1.77344 -4.49695,-1.16529 -10.33493,-3.0014 -14.78515,-4.65234 -1.33473,-0.49515 -2.44772,-1.32482 -2.54102,-1.89258 -0.17687,-1.07682 5.32515,-7.68191 7.75391,-9.3086 0.78067,-0.52286 2.8017,-2.52034 4.49219,-4.4375 3.6814,-4.17501 4.10766,-4.39168 9.49804,-4.82812 0.8596,-0.0696 1.62209,-0.1046 2.36133,-0.0977 z m 120.61133,13.05274 c 0.0557,-0.008 0.1125,-0.006 0.16992,0.01 0.76557,0.20614 1.69737,2.5412 3.09961,7.39063 2.20231,7.61639 1.83668,8.19962 -4.5039,7.18164 -3.03887,-0.48789 -5.74317,-0.52224 -8.53907,-0.10938 -4.28492,0.63273 -5.16535,0.26957 -2.52929,-1.04101 1.81155,-0.90065 6.99545,-5.44414 9.17773,-8.04492 0.82511,-0.98334 1.73891,-2.57267 2.03125,-3.53125 0.35393,-1.16053 0.70397,-1.79711 1.09375,-1.85547 z m -80.23437,6.46289 c 0.79387,0.003 1.79959,0.0365 3.09765,0.0898 5.58844,0.22959 5.66497,0.2535 8.66992,2.75781 3.9695,3.30817 4.40794,4.19765 3.24024,6.57032 -0.99025,2.0121 -1.24385,7.81878 -0.45117,10.33398 0.25433,0.80699 0.63325,2.96491 0.84179,4.79492 0.20853,1.83002 0.17866,3.29687 -0.0664,3.25977 -0.24506,-0.0371 -1.15807,-0.34759 -2.0293,-0.68945 -6.49265,-2.5477 -6.38307,-2.5303 -11.97852,-1.85743 -7.31081,0.87914 -7.60183,0.6586 -9.6289,-7.32812 -1.04279,-4.10866 -1.07438,-10.32094 -0.0684,-13.21094 0.62333,-1.7906 1.04909,-2.19726 2.29492,-2.19726 0.88335,0 1.95291,-0.56437 2.5332,-1.33399 0.69379,-0.92017 1.16329,-1.19744 3.54493,-1.18945 z m 173.22851,0.12109 c 0.008,0.0133 0.0155,0.0285 0.0254,0.041 0.005,0.005 -0.002,-0.009 -0.008,-0.0195 -0.006,-0.008 -0.012,-0.0145 -0.0176,-0.0215 z m 0.75,1.08008 c 0.0217,0.0402 0.053,0.10582 0.0625,0.0859 l -0.004,-0.0215 c -0.0283,-0.032 -0.0355,-0.0387 -0.0586,-0.0645 z m 2.26758,1.30078 c 0.0443,0.0681 0.0848,0.13398 0.14258,0.21094 -0.007,-0.06 -0.0259,-0.12423 -0.0293,-0.1836 -0.038,-0.0103 -0.0599,-0.005 -0.10547,-0.0215 -0.003,-0.001 -0.005,-0.005 -0.008,-0.006 z m -72.53516,0.50977 c 1.39318,0.019 3.0932,0.0919 5.23438,0.20117 l 2.18164,0.11133 0.89258,5.14453 c 0.49076,2.82974 1.36597,7.28413 1.94531,9.89844 l 1.05469,4.7539 -1.72266,4.27735 c -1.78637,4.43705 -2.33114,4.93073 -3.66797,3.32617 -0.43578,-0.52307 -2.1805,-1.53629 -3.87695,-2.25196 -3.28971,-1.38781 -2.86991,-1.42483 -10.81445,0.95313 -1.85706,0.55584 -3.49342,0.86923 -3.63672,0.69727 -0.1433,-0.17199 0.0432,-1.61321 0.41406,-3.20313 0.76375,-3.27416 0.90309,-10.40875 0.30078,-15.38477 -0.48961,-4.04492 -0.19519,-4.57458 3.8418,-6.87695 2.25765,-1.28759 3.67398,-1.70348 7.85351,-1.64648 z m -76.60742,3.0957 c 2.28373,-0.0435 5.33897,0.3252 6.79102,0.81836 1.45206,0.49318 5.01776,0.94536 7.92187,1.00586 5.06786,0.10566 8.03802,0.88794 8.76953,2.30859 0.36528,0.70941 0.0794,18.67155 -0.31836,20.00977 -0.33027,1.11123 -0.97251,0.98958 -2.52539,-0.47656 -0.73876,-0.69749 -2.92992,-2.12259 -4.87109,-3.16797 -3.29884,-1.77652 -3.94954,-1.90049 -9.94922,-1.89649 -4.79276,0.004 -7.25586,0.31176 -9.72461,1.21289 -3.9778,1.45195 -3.77947,1.71229 -5.18945,-6.77539 -1.13696,-6.84415 -0.84988,-7.97346 2.83789,-11.14843 1.85983,-1.60127 2.58896,-1.82073 6.25781,-1.89063 z m 130.32227,0.44141 c 1.13814,-0.004 2.2889,0.0448 3.45898,0.14062 7.67187,0.62841 9.51748,2.90284 3.81836,4.70508 -1.37393,0.43449 -4.2809,1.44036 -6.45898,2.23633 -2.17809,0.79598 -5.26797,1.75885 -6.86524,2.14062 -1.59726,0.38177 -4.92212,1.27731 -7.39062,1.99024 -2.46849,0.71293 -6.03432,1.71187 -7.92188,2.21875 -1.88757,0.50689 -5.03571,0.92187 -6.99609,0.92187 -5.38095,0 -4.75196,-1.16889 3.1914,-5.93164 9.79958,-5.87571 17.19706,-8.3973 25.16407,-8.42187 z m -98.41797,2.94531 c 0.59796,0 0.93924,0.28423 0.75976,0.63281 -0.17949,0.34857 -0.66745,0.63477 -1.08593,0.63477 -0.41847,0 -0.76172,-0.2862 -0.76172,-0.63477 0,-0.34858 0.48993,-0.63281 1.08789,-0.63281 z m 16.24023,1.93945 c 2.164,0.0343 4.3659,0.27379 5.64063,0.70313 1.16165,0.39125 3.06296,0.71951 4.22461,0.72851 3.64286,0.0276 3.77858,1.92786 0.74609,10.49414 -1.18724,3.3538 -2.32184,6.30568 -2.52148,6.5586 -0.19963,0.25291 -1.0698,-0.049 -1.9336,-0.66992 -1.49199,-1.07258 -4.47243,-1.99988 -9.75586,-3.03516 -3.75204,-0.73521 -9.49888,-0.22467 -12.27734,1.08984 -1.40007,0.66238 -3.03954,1.20508 -3.64258,1.20508 -0.99548,0 -1.06562,-0.26223 -0.77148,-2.85156 0.17818,-1.56858 0.46379,-4.08869 0.63476,-5.59961 0.17098,-1.51091 0.48258,-3.08284 0.69336,-3.49219 0.21077,-0.40935 2.98241,-1.48534 6.1582,-2.39062 3.17578,-0.90528 6.50269,-1.89932 7.39454,-2.21094 1.12019,-0.39141 3.24615,-0.56357 5.41015,-0.5293 z m -68.16015,17.83789 c 0.44866,-0.0109 0.87715,0.004 1.27148,0.0469 2.55053,0.27759 6.35356,2.10465 8.28516,3.98047 0.3679,0.35727 2.10097,10.88679 2.27929,13.84961 0.10488,1.74243 -0.0462,3.17972 -0.34179,3.26562 -0.29041,0.0844 -1.95286,-0.38605 -3.69532,-1.04492 -1.74247,-0.65887 -3.80325,-1.20303 -4.57812,-1.20703 -2.33908,-0.0143 -3.06874,-0.65839 -4.45313,-3.9375 -0.72872,-1.72609 -2.37924,-5.11634 -3.66992,-7.53321 -1.29068,-2.41686 -2.34765,-4.65371 -2.34765,-4.9707 0,-1.07873 4.10937,-2.37272 7.25,-2.44922 z m 60.44335,1.51563 c 4.96919,0.0452 7.32363,0.34346 9.08399,1.15039 2.50597,1.14872 5.59375,4.75994 5.59375,6.54297 0,1.94876 -2.26934,12.51655 -2.85547,13.29687 -0.45491,0.60564 -1.20837,0.59698 -3.50195,-0.043 -3.30207,-0.92132 -10.29858,-0.3769 -15.36719,1.19727 -3.81302,1.1842 -5.01438,1.16787 -5.41211,-0.0762 -0.42306,-1.32204 -0.4143,-16.34544 0.01,-17.67188 0.18145,-0.56754 1.54674,-1.80173 3.03515,-2.74414 2.54999,-1.61455 3.09377,-1.70984 9.41406,-1.65234 z m -37.69726,0.0449 c 0.90446,-0.0192 1.99788,-0.009 3.375,0.0195 7.06508,0.14455 8.42831,0.71696 11.06055,4.64844 1.62876,2.43269 1.81646,2.53662 3.92968,2.15625 l 2.21875,-0.40039 0.37305,7.1914 c 0.20563,3.95556 0.2901,7.88243 0.1875,8.72657 -0.25655,2.11069 -0.83232,2.14704 -3.88281,0.23632 -5.78656,-3.6245 -18.38749,-6.46714 -22.01563,-4.96679 -2.28556,0.94514 -2.53711,0.77543 -2.53711,-1.69141 0,-1.00313 -0.3845,-3.65734 -0.85351,-5.89844 -1.17163,-5.59844 -0.81761,-6.7874 2.5625,-8.62109 1.8582,-1.00811 2.86866,-1.3428 5.58203,-1.40039 z m 73.17773,0.48242 c 0.75522,0.0345 1.36974,0.23938 2.13868,0.625 1.03126,0.51718 1.875,1.23404 1.875,1.59375 0,0.35973 0.59428,0.83206 1.32031,1.05078 0.72603,0.21871 1.32031,0.46412 1.32031,0.54492 0,0.63358 -3.5837,8.69739 -4.5918,10.33204 -1.20979,1.96168 -2.22917,2.53379 -2.95703,1.66015 -0.18293,-0.21956 -3.79579,-0.36863 -8.02929,-0.33203 -8.59118,0.0744 -8.75642,-0.0141 -7.64649,-4.05078 1.45139,-5.27854 6.68933,-9.53171 13.58789,-11.0332 1.33112,-0.28972 2.22721,-0.42512 2.98242,-0.39063 z m -6.41406,20.01563 c 3.15138,-0.006 3.56445,0.13274 3.56445,1.19726 0,1.95897 -5.29942,7.12921 -10.62109,10.36328 -4.88744,2.97019 -8.39501,4.32899 -8.37891,3.2461 0.031,-2.08372 1.55775,-7.80652 2.40235,-9.00391 2.5089,-3.55686 7.53048,-5.79213 13.0332,-5.80273 z m -83.97265,1.26953 c 2.32258,0.013 3.03197,0.65114 4.33007,3.89648 0.84899,2.12252 1.4296,2.79437 2.55078,2.94922 0.79863,0.11029 1.45313,0.5874 1.45313,1.05859 0,0.4712 0.14403,1.30606 0.32031,1.85743 0.99467,3.11122 -6.51495,-1.5078 -9.5957,-5.90235 -1.72617,-2.46229 -1.38293,-3.87237 0.94141,-3.85937 z m 17.29101,2.64062 c 0.81323,-0.003 1.72594,0.0206 2.74805,0.0645 3.29066,0.14118 7.05252,0.61893 8.35937,1.0625 3.82662,1.29885 8.9213,4.40481 9.76758,5.95507 0.82327,1.50804 0.88475,8.2423 0.0898,9.75586 -0.39679,0.75554 -5.47558,0.97787 -8.80078,0.38477 -3.69502,-0.65906 -9.60008,-2.47711 -12.49218,-3.8457 -3.37357,-1.59641 -3.36728,-1.58673 -4.85938,-7.19922 -1.28414,-4.83025 -0.50508,-6.15641 5.1875,-6.17774 z m 43.02344,0.63477 c 4.69932,-0.0767 5.14156,0.77177 4.67969,4.82617 -0.5373,4.71649 -2.09193,8.29854 -4.02735,9.28711 -0.92399,0.47195 -4.29376,1.31671 -7.48828,1.87695 -6.13206,1.07543 -9.88649,1.28521 -10.4707,0.58399 -0.55112,-0.6615 -0.41349,-9.66665 0.16797,-10.97071 0.76818,-1.72284 4.06283,-3.96693 6.82617,-4.64843 1.33151,-0.32838 4.94359,-0.71971 8.02734,-0.8711 0.85491,-0.042 1.61383,-0.073 2.28516,-0.084 z"
       id="path3586"
       inkscape:connector-curvature="0" />
  </g>
</svg>
